<?xml version="1.0" standalone="no"?>
<!DOCTYPE svg PUBLIC "-//W3C//DTD SVG 20010904//EN"
 "http://www.w3.org/TR/2001/REC-SVG-20010904/DTD/svg10.dtd">
<svg version="1.0" xmlns="http://www.w3.org/2000/svg"
 width="600.000000pt" height="600.000000pt" viewBox="0 0 600.000000 600.000000"
 preserveAspectRatio="xMidYMid meet">
<metadata>
Created by potrace 1.11, written by Peter Selinger 2001-2013
</metadata>
<g transform="translate(0.000000,600.000000) scale(0.100000,-0.100000)"
fill="#000000" stroke="none">
<path d="M4420 5832 c-8 -3 -163 -91 -345 -195 -181 -104 -346 -198 -365 -209
-19 -11 -186 -107 -370 -213 -574 -330 -950 -545 -1085 -622 -71 -40 -137 -78
-145 -83 -8 -5 -165 -95 -348 -200 -389 -224 -512 -299 -512 -311 0 -4 21 -19
48 -32 53 -26 105 -93 123 -160 10 -38 7 -517 -6 -957 -2 -58 -6 -226 -10
-375 -4 -148 -8 -308 -10 -355 -2 -47 -6 -197 -10 -335 -4 -137 -8 -272 -9
-300 -3 -59 11 -99 49 -140 15 -16 170 -176 344 -354 174 -178 338 -346 365
-375 195 -204 355 -365 373 -375 24 -12 105 -12 97 0 -2 4 5 6 16 4 12 -2 23
2 27 11 4 10 9 12 18 4 12 -10 25 -4 25 12 0 5 -5 6 -12 2 -7 -5 -8 -3 -3 5 5
9 13 7 31 -10 28 -26 32 -16 7 15 -10 12 -11 15 -3 8 12 -10 18 -9 32 10 16
20 17 20 11 3 -6 -18 -5 -18 10 -6 9 7 15 17 12 21 -3 5 0 12 6 16 8 4 9 3 5
-4 -3 -6 2 -16 13 -21 26 -15 31 -14 25 4 -4 8 -10 12 -15 9 -5 -3 -6 2 -3 10
3 8 14 13 25 11 10 -2 19 1 19 7 0 6 9 3 20 -7 25 -22 26 -9 3 19 l-18 21 24
-20 c22 -18 24 -18 18 -2 -5 12 -3 16 5 11 8 -5 9 -2 4 11 -5 15 -4 16 9 5 12
-10 15 -9 15 6 1 18 1 18 11 1 5 -9 15 -17 21 -17 7 0 7 4 -1 14 -9 10 -7 17
6 27 16 13 17 12 5 -3 -9 -11 -10 -18 -2 -23 5 -3 10 -2 10 2 0 5 7 18 16 29
8 10 13 14 10 8 -3 -6 1 -20 9 -30 14 -18 15 -16 12 16 -2 31 1 35 21 33 16
-2 21 1 16 10 -4 6 -4 9 1 5 4 -4 15 -2 24 5 14 10 14 10 3 -5 -12 -15 -11
-17 7 -15 15 1 20 7 17 23 -3 17 0 21 21 18 14 -1 29 -8 33 -14 6 -9 9 -9 12
1 3 8 -4 20 -16 27 -20 13 -20 13 3 6 18 -5 22 -3 16 7 -5 8 -5 11 0 7 4 -4
20 1 35 12 15 11 30 16 34 13 3 -4 13 2 22 13 15 18 15 18 5 -3 -8 -16 -7 -22
5 -27 24 -9 28 -7 15 8 -8 10 -9 16 -1 21 6 3 8 11 5 16 -3 5 1 6 9 3 9 -3 16
-12 16 -20 0 -8 5 -14 11 -14 5 0 9 8 8 17 -3 33 1 44 12 37 8 -4 7 -9 -2 -15
-10 -6 -11 -9 -2 -9 7 0 12 -5 10 -11 -1 -6 3 -13 9 -16 6 -2 11 3 11 12 0 8
-3 15 -7 15 -5 0 -6 31 -1 48 1 1 11 -2 23 -9 18 -10 20 -9 14 7 -4 10 -4 15
0 12 3 -4 15 2 27 12 20 19 21 19 34 0 8 -11 19 -20 25 -20 6 0 3 10 -8 22
-18 22 -18 22 0 8 18 -14 18 -13 13 10 -4 14 -4 19 -1 13 3 -7 10 -13 15 -13
6 0 8 4 4 9 -3 6 4 15 15 21 11 6 20 8 20 4 0 -3 8 0 18 7 16 13 16 13 2 -5
-14 -18 -13 -19 3 -13 10 4 20 7 23 7 2 0 1 7 -2 15 -7 16 -6 16 43 19 18 1
38 8 45 15 11 11 9 12 -12 6 -28 -8 -26 -3 7 14 17 9 25 8 36 -4 13 -13 16
-13 21 0 3 8 1 15 -4 15 -6 0 -10 4 -10 8 0 5 7 9 15 9 8 0 11 -5 8 -10 -3 -5
0 -7 8 -5 8 3 13 14 11 24 -2 16 0 15 11 -4 7 -12 16 -20 20 -16 4 4 2 13 -4
21 -6 7 -8 13 -4 13 4 0 15 -10 24 -22 12 -15 20 -18 25 -10 4 7 3 12 -3 12
-6 0 -15 8 -20 19 -9 15 -7 18 12 16 30 -2 42 6 26 17 -11 8 -10 9 3 5 9 -3
22 1 28 8 7 8 16 13 20 10 5 -3 10 1 13 7 3 7 5 -2 4 -19 0 -18 -4 -33 -9 -33
-4 0 -8 -5 -8 -11 0 -5 5 -7 10 -4 6 3 10 1 10 -4 0 -6 4 -11 9 -11 5 0 8 23
7 51 -1 43 0 48 11 33 10 -14 10 -19 0 -26 -9 -6 -9 -8 2 -8 11 0 11 -3 0 -17
-12 -14 -12 -16 1 -11 8 3 14 13 14 22 -1 9 3 16 8 16 6 0 6 6 -1 14 -10 12
-8 16 10 21 13 4 17 10 11 14 -7 4 -3 12 11 20 20 13 21 13 8 -2 -7 -10 -9
-17 -3 -17 15 0 33 26 24 35 -4 5 -2 5 4 2 7 -4 17 0 24 8 7 8 16 13 20 10 5
-3 11 -1 15 5 4 7 12 7 24 0 10 -5 21 -6 25 -2 4 3 4 0 1 -9 -4 -10 1 -15 15
-16 18 -2 19 0 4 22 -10 15 -22 22 -32 19 -12 -4 -11 -1 3 7 11 7 31 14 45 16
l25 2 -24 -9 c-13 -6 -22 -13 -19 -15 7 -8 58 13 57 22 -1 5 -1 15 0 23 1 11
4 11 13 2 19 -19 32 -14 17 5 -13 16 -12 17 3 5 11 -9 18 -10 23 -2 3 5 1 10
-5 10 -6 0 -8 5 -4 11 4 8 9 7 15 -2 7 -12 9 -12 9 0 0 8 3 11 6 8 4 -4 1 -13
-6 -22 -7 -8 -8 -15 -3 -15 15 0 32 22 27 35 -3 7 -1 16 4 19 5 3 8 -7 6 -21
-3 -32 5 -48 27 -49 11 -1 16 7 16 26 0 19 -5 26 -14 23 -7 -3 -13 0 -13 7 0
6 5 8 10 5 6 -3 10 -2 10 4 0 5 -5 11 -12 13 -9 3 -9 6 0 12 7 4 12 2 12 -5 0
-7 12 -2 27 12 14 13 23 18 18 10 -5 -9 -3 -12 6 -9 8 3 13 11 11 17 -1 7 2
10 8 6 5 -3 10 -1 10 6 0 7 3 9 6 6 4 -4 1 -13 -5 -21 -10 -12 -7 -18 19 -31
18 -9 34 -14 38 -11 3 3 2 6 -2 6 -4 0 -2 9 4 20 9 16 6 22 -17 35 -16 9 -20
14 -11 11 10 -3 21 2 26 11 8 13 13 13 32 3 18 -10 25 -9 39 5 15 15 14 16 -9
12 -14 -2 -19 -2 -12 0 6 3 12 9 12 14 0 6 4 8 9 5 9 -6 50 34 50 49 0 5 5 11
13 13 9 2 8 0 -2 -7 -13 -9 -13 -11 3 -11 9 0 17 -2 17 -5 0 -13 -47 -71 -56
-68 -6 2 -17 -3 -24 -12 -15 -18 0 -21 18 -3 9 9 12 9 12 1 0 -7 -8 -14 -18
-17 -17 -6 -24 -38 -11 -51 3 -3 23 3 44 14 l38 18 -23 16 c-22 15 -20 44 2
31 7 -5 9 -2 6 7 -3 8 -1 21 6 29 12 16 41 26 32 11 -3 -5 1 -14 9 -21 18 -15
19 -7 4 21 -5 11 -15 16 -21 13 -7 -5 -9 -2 -6 7 3 8 1 21 -6 29 -13 18 -46
22 -46 7 0 -5 -9 0 -20 13 -11 13 -20 27 -20 32 0 5 -4 7 -9 4 -5 -3 -13 0
-19 7 -10 12 -9 28 3 62 l8 20 -17 -20 c-11 -14 -15 -15 -14 -5 2 8 11 21 21
28 9 7 17 18 17 24 0 6 -8 4 -18 -5 -10 -10 -23 -17 -28 -17 -4 0 2 7 14 16
12 8 20 20 16 25 -3 6 -12 3 -20 -8 -8 -10 -6 1 6 24 25 53 25 65 -1 33 -16
-20 -18 -20 -10 -4 7 15 7 25 -2 34 -10 12 -9 12 6 1 21 -17 22 -3 1 27 -8 12
-10 22 -5 22 6 0 11 -5 11 -11 0 -5 4 -8 8 -5 7 4 8 27 3 55 -1 3 -8 -4 -17
-15 -9 -10 -4 2 9 28 14 26 21 50 16 53 -5 4 -9 2 -9 -2 0 -5 -7 -18 -16 -29
-15 -18 -15 -18 -5 2 6 12 8 24 5 27 -3 3 0 15 6 28 11 20 10 21 -6 15 -15 -6
-16 -4 -7 5 6 6 9 18 6 25 -3 8 0 14 6 14 6 0 10 -3 10 -7 -3 -17 1 -33 9 -32
20 3 31 -2 26 -14 -3 -8 2 -20 11 -27 18 -15 21 0 3 18 -9 9 -9 12 -1 12 7 0
14 -9 18 -19 8 -27 35 -15 35 16 0 13 -4 22 -10 18 -5 -3 -7 -13 -4 -23 4 -13
3 -14 -4 -4 -5 8 -8 25 -6 38 1 16 -2 24 -9 21 -7 -2 -11 -12 -9 -22 2 -11 -1
-15 -10 -12 -7 2 -12 10 -10 17 2 8 -3 10 -13 6 -9 -3 -13 -2 -10 4 5 8 -27
32 -36 27 -2 -1 2 4 11 11 8 7 20 10 26 8 7 -3 15 2 18 10 9 24 7 27 -9 14 -8
-7 -15 -9 -15 -4 0 4 -5 3 -12 -4 -7 -7 -17 -12 -22 -12 -13 1 25 24 38 25 5
0 11 5 13 11 6 17 -29 12 -45 -6 -8 -8 -2 6 11 32 14 26 21 50 16 53 -5 4 -9
2 -9 -2 0 -5 -7 -18 -16 -29 -15 -18 -15 -18 -5 2 6 12 8 24 5 27 -3 3 0 15 6
28 11 19 10 21 -5 15 -15 -5 -16 -4 -5 9 10 12 10 18 -1 32 -13 16 -12 17 4 4
21 -17 22 -3 1 27 -8 12 -10 22 -5 22 6 0 11 -5 11 -11 0 -5 4 -8 8 -5 7 4 8
27 3 55 -1 3 -8 -4 -16 -15 -10 -11 -8 -2 5 23 25 53 25 65 -1 33 -16 -20 -18
-20 -10 -4 7 15 7 25 -2 34 -10 12 -9 12 6 1 21 -17 22 -3 1 27 -8 12 -10 22
-5 22 6 0 11 -5 11 -11 0 -5 4 -8 8 -5 7 4 8 27 3 55 -1 3 -8 -4 -17 -15 -9
-10 -4 2 9 28 14 26 21 50 16 53 -5 4 -9 2 -9 -2 0 -5 -7 -18 -16 -29 -15 -18
-15 -18 -5 2 6 12 8 24 5 27 -3 3 0 15 6 28 11 20 10 21 -6 15 -15 -6 -16 -4
-7 5 6 6 9 18 6 25 -3 8 0 14 6 14 6 0 10 -3 10 -7 -3 -17 1 -33 9 -32 20 3
31 -2 26 -14 -3 -8 2 -20 11 -27 18 -15 21 0 3 18 -9 9 -9 12 -1 12 7 0 14 -9
18 -19 8 -27 35 -15 35 16 0 13 -4 22 -10 18 -5 -3 -7 -13 -4 -23 4 -13 3 -14
-4 -4 -5 8 -8 25 -6 38 1 16 -2 24 -9 21 -7 -2 -11 -12 -9 -22 2 -11 -1 -15
-10 -12 -7 2 -12 10 -10 17 2 8 -3 10 -13 6 -9 -3 -13 -2 -10 4 5 8 -27 32
-36 27 -2 -1 2 4 11 11 8 7 20 10 26 8 7 -3 15 2 18 10 9 24 7 27 -9 14 -8 -7
-15 -9 -15 -4 0 4 -5 3 -12 -4 -7 -7 -17 -12 -22 -12 -13 1 25 24 38 25 5 0
11 5 13 11 6 17 -29 12 -45 -6 -8 -8 -2 6 11 32 14 26 21 50 16 53 -5 4 -9 2
-9 -2 0 -5 -7 -18 -16 -29 -15 -18 -15 -18 -5 2 6 12 8 24 5 27 -3 3 0 15 6
28 11 19 10 21 -5 15 -15 -5 -16 -4 -5 9 10 12 10 18 -1 33 -13 15 -12 16 4 3
21 -17 22 -3 1 27 -8 12 -10 22 -5 22 6 0 11 -5 11 -11 0 -5 4 -8 8 -5 7 4 8
27 3 55 -1 3 -8 -4 -16 -15 -10 -11 -8 -2 5 23 25 53 25 65 -1 33 -16 -20 -18
-20 -10 -4 7 15 7 25 -2 34 -10 12 -9 12 6 1 21 -17 22 -3 1 27 -8 12 -10 22
-5 22 6 0 11 -5 11 -11 0 -5 4 -8 8 -5 7 4 8 27 3 55 -1 3 -8 -4 -17 -15 -9
-10 -5 2 9 28 20 37 22 48 11 52 -9 3 -14 -2 -14 -14 0 -10 -3 -21 -8 -23 -4
-3 -7 30 -7 74 0 51 -4 79 -11 79 -6 0 -150 -68 -320 -151 -170 -83 -388 -190
-484 -236 -228 -111 -476 -232 -782 -381 -153 -74 -250 -127 -257 -140 -13
-24 -16 -812 -3 -812 5 0 32 11 61 25 28 14 57 22 63 19 7 -4 8 -3 4 4 -4 7
-2 12 3 12 14 0 14 -27 1 -35 -7 -4 -7 -13 0 -26 8 -14 7 -19 -1 -19 -7 0 -10
-2 -7 -5 3 -3 13 -3 22 1 13 5 14 9 5 20 -7 8 -7 14 -2 14 6 0 10 12 9 28 -1
17 4 26 12 25 6 -2 12 1 12 6 0 15 30 22 49 11 27 -14 35 2 9 17 l-23 14 24
-7 c17 -4 21 -3 16 6 -5 9 -4 11 3 6 7 -4 12 -2 12 5 0 7 3 9 6 6 4 -4 1 -13
-6 -22 -7 -8 -8 -15 -3 -15 14 0 32 21 29 34 -2 6 -1 8 1 3 3 -4 10 -4 16 0 7
4 6 -1 -2 -10 -15 -19 -8 -22 20 -7 18 10 27 31 12 29 -5 -1 -15 -1 -23 0 -13
1 -13 2 0 11 9 6 20 5 29 -3 12 -10 14 -9 8 6 -4 11 -3 16 4 12 6 -4 8 -13 5
-21 -7 -17 6 -18 22 -2 9 9 8 14 -1 22 -7 6 -10 10 -8 8 2 -1 14 6 25 15 12
10 15 11 9 3 -7 -8 -13 -19 -13 -25 1 -5 12 3 25 19 23 29 55 43 55 25 0 -6 4
-8 10 -4 5 3 7 13 4 23 -3 9 1 7 8 -6 l14 -23 25 20 c26 22 20 27 -12 11 -13
-7 -19 -7 -19 0 0 5 7 10 15 10 8 0 15 5 15 11 0 5 5 7 10 4 6 -3 13 1 16 10
5 11 9 13 14 5 3 -6 14 -8 23 -4 9 3 14 11 10 17 -3 6 -1 7 5 3 7 -4 12 -3 12
3 0 5 10 11 23 13 12 2 21 8 20 14 -1 6 4 11 12 11 8 0 13 -5 12 -10 -1 -5 3
-11 10 -14 7 -3 10 5 9 21 -3 21 0 24 15 16 24 -14 27 -13 25 8 0 10 6 16 17
16 9 -1 17 2 17 7 0 6 9 5 21 -1 11 -7 18 -17 16 -24 -3 -8 5 -13 23 -13 19 0
26 5 23 14 -4 11 7 17 28 15 3 -1 6 12 6 28 0 16 -4 27 -9 24 -15 -9 -8 3 9
17 14 12 16 12 8 0 -6 -11 -4 -13 8 -8 15 6 22 -3 18 -25 -2 -13 43 -2 47 10
2 7 -3 10 -12 6 -9 -3 -16 -2 -17 2 0 5 -2 16 -4 25 -1 9 3 16 11 16 7 0 12
-3 11 -6 -1 -3 1 -6 4 -6 4 0 16 -8 28 -19 22 -20 20 -39 -5 -29 -8 3 -14 2
-13 -3 1 -5 1 -16 0 -24 -1 -12 -3 -12 -9 -2 -7 9 -13 8 -27 -8 -10 -11 -13
-20 -7 -20 6 0 13 4 17 9 3 6 14 8 25 6 12 -2 18 0 15 6 -6 8 6 12 22 7 4 -2
8 -122 8 -268 1 -208 -2 -271 -13 -294 -11 -23 -55 -48 -245 -141 -128 -62
-348 -169 -490 -238 -142 -70 -275 -131 -295 -137 -61 -17 -110 -13 -130 11
-9 12 -22 27 -29 34 -7 7 -9 15 -6 19 4 3 1 6 -5 6 -6 0 -9 6 -6 14 3 8 1 17
-4 20 -5 3 -9 -10 -8 -29 0 -19 4 -35 7 -35 3 0 14 -7 25 -15 12 -10 14 -14 4
-13 -15 3 -31 13 -60 40 -10 9 -22 13 -26 10 -4 -4 -4 -1 0 6 4 6 3 12 -3 12
-6 0 -7 7 -4 17 4 10 2 14 -5 9 -16 -10 -32 26 -21 47 6 9 6 17 2 17 -4 0 -1
5 7 11 12 8 11 9 -5 7 -13 -3 -19 -10 -17 -23 2 -16 1 -17 -7 -5 -5 8 -8 17
-5 21 2 4 1 9 -3 12 -5 2 -2 2 5 0 8 -1 12 3 9 9 -2 7 -9 12 -14 11 -5 -1 -9
13 -9 32 0 18 4 31 8 29 5 -3 8 -1 8 5 0 5 -6 11 -12 14 -7 2 -9 8 -5 13 4 5
12 2 17 -6 6 -8 10 -12 11 -7 1 4 3 12 4 17 1 6 3 15 4 21 0 6 8 8 17 5 17 -7
44 9 44 26 0 7 -5 6 -13 0 -7 -6 -25 -9 -40 -6 -15 2 -27 1 -26 -3 3 -21 -2
-33 -12 -27 -8 4 -7 9 2 15 10 6 11 9 2 9 -7 0 -13 5 -13 11 0 5 5 7 10 4 6
-3 10 3 10 15 0 12 -4 18 -10 15 -5 -3 -10 -2 -10 4 0 5 6 12 13 14 8 4 9 8 1
14 -13 10 -14 43 -1 43 5 0 7 -7 4 -15 -4 -8 -2 -17 4 -21 6 -3 8 -13 5 -21
-4 -9 -1 -13 6 -10 7 2 11 11 9 18 -3 14 -4 42 -2 68 0 7 7 11 16 7 8 -3 15
-1 15 4 0 6 -4 10 -9 10 -5 0 -17 3 -26 6 -9 4 -15 3 -14 -2 4 -22 -2 -35 -12
-28 -8 4 -7 9 2 15 10 6 11 9 2 9 -7 0 -13 5 -13 11 0 5 4 8 9 5 5 -3 11 1 15
9 3 8 0 14 -5 12 -6 -1 -13 8 -15 20 -3 15 1 23 11 23 8 0 18 0 23 0 4 0 7 -4
7 -9 0 -5 3 -13 7 -17 5 -4 8 2 8 14 0 23 -17 38 -40 34 -11 -2 -16 7 -16 28
-2 28 9 36 39 31 5 -1 5 9 1 21 -4 13 -7 31 -6 41 1 15 -2 16 -14 6 -10 -8
-12 -15 -4 -23 15 -15 12 -26 -7 -26 -14 0 -15 2 -4 9 11 7 11 9 0 13 -11 4
-10 9 4 25 21 24 23 40 2 23 -9 -8 -15 -8 -15 -2 0 6 6 13 13 15 9 4 8 8 -3
16 -13 9 -13 12 -1 20 16 10 5 35 -11 25 -7 -4 -8 -2 -4 5 6 9 11 9 22 0 9 -8
14 -8 14 -1 0 6 -8 16 -17 21 -10 6 -13 11 -7 11 5 0 15 -5 21 -11 9 -9 12 -7
11 7 0 10 1 25 3 33 2 7 -2 16 -9 18 -7 3 -12 1 -11 -4 4 -21 -2 -34 -12 -27
-8 4 -7 9 2 15 10 6 11 9 2 9 -7 0 -13 5 -13 11 0 5 5 7 10 4 6 -3 10 -2 10 4
0 5 3 17 6 25 5 13 2 15 -12 9 -18 -7 -18 -6 -1 11 21 22 23 44 2 26 -8 -7
-15 -9 -15 -5 0 4 8 14 18 22 10 8 12 12 3 11 -7 -2 -15 7 -17 20 -3 14 1 22
11 22 8 0 18 0 23 0 4 0 7 -4 7 -9 0 -5 3 -13 8 -17 4 -4 7 2 7 14 0 23 -17
38 -40 34 -11 -2 -16 7 -16 28 -2 28 9 36 39 31 5 -1 7 4 5 11 -3 7 -14 12
-25 10 -16 -2 -19 3 -19 32 0 19 4 32 8 30 5 -3 8 -1 8 5 0 5 -6 11 -12 14 -7
2 -9 8 -5 13 4 5 12 2 17 -6 6 -8 10 -12 11 -7 1 4 3 12 4 17 1 6 3 15 4 21 0
6 8 8 17 5 17 -7 44 9 44 26 0 7 -5 6 -13 0 -7 -6 -25 -9 -40 -6 -15 2 -27 1
-26 -3 3 -21 -2 -33 -12 -27 -8 4 -7 9 2 15 10 6 11 9 2 9 -7 0 -13 5 -13 11
0 5 5 7 10 4 6 -3 10 3 10 15 0 12 -4 18 -10 15 -5 -3 -10 -2 -10 4 0 5 6 12
13 14 8 4 9 8 1 14 -13 10 -14 43 -1 43 5 0 7 -7 4 -15 -4 -8 -2 -17 4 -21 6
-3 8 -13 5 -21 -4 -9 -1 -13 6 -10 7 2 11 11 9 18 -3 14 -4 42 -2 68 0 7 7 11
16 7 8 -3 15 -1 15 4 0 6 -4 10 -9 10 -5 0 -17 3 -26 6 -9 4 -15 3 -14 -2 4
-22 -2 -35 -12 -28 -8 4 -7 9 2 15 10 6 11 9 2 9 -7 0 -13 5 -13 11 0 5 4 8 9
5 5 -3 11 1 15 9 3 8 0 14 -5 12 -6 -1 -13 8 -15 20 -3 15 1 23 11 23 8 0 18
0 23 0 4 0 7 -4 7 -9 0 -5 3 -13 8 -17 4 -4 7 2 7 14 0 23 -17 38 -40 34 -11
-2 -16 7 -16 28 -2 28 9 36 39 31 5 -1 5 9 1 21 -4 13 -7 31 -6 41 1 15 -2 16
-14 6 -10 -8 -12 -15 -4 -23 15 -15 12 -26 -7 -26 -14 0 -15 2 -4 9 11 7 11 9
0 13 -11 4 -10 9 4 25 21 24 23 40 2 23 -9 -8 -15 -8 -15 -2 0 6 6 13 13 15 9
4 8 8 -3 16 -13 9 -13 12 -1 20 16 10 5 35 -11 25 -7 -4 -8 -2 -4 5 6 9 11 9
22 0 9 -8 14 -8 14 -1 0 6 -8 16 -17 21 -10 6 -13 11 -7 11 5 0 15 -5 21 -11
9 -9 12 -7 11 7 0 10 1 25 3 33 2 7 -2 16 -9 18 -7 3 -12 1 -11 -4 4 -21 -2
-34 -12 -27 -8 4 -7 9 2 15 10 6 11 9 2 9 -7 0 -13 5 -13 11 0 5 5 7 10 4 5
-3 10 -2 10 4 0 5 3 17 6 25 5 13 2 15 -12 9 -18 -7 -18 -6 -1 11 21 22 23 44
2 26 -8 -7 -15 -9 -15 -5 0 4 8 14 18 22 10 8 12 12 3 11 -7 -2 -15 7 -17 20
-3 14 1 22 11 22 8 0 18 0 23 0 4 0 7 -4 7 -9 0 -5 3 -13 7 -17 5 -4 8 2 8 14
0 23 -17 38 -40 34 -11 -2 -16 7 -16 28 -2 28 9 36 39 31 5 -1 7 4 5 11 -3 7
-14 12 -25 10 -16 -2 -19 3 -19 32 0 19 4 32 8 30 5 -3 8 -1 8 5 0 5 -6 11
-12 14 -7 2 -9 8 -5 13 4 5 12 2 17 -6 6 -8 10 -12 11 -7 1 4 3 12 4 17 1 6 3
15 4 21 0 6 8 8 17 5 17 -7 44 9 44 26 0 7 -5 6 -13 0 -7 -6 -25 -9 -40 -6
-15 2 -27 1 -26 -3 3 -21 -2 -33 -12 -27 -8 4 -7 9 2 15 10 6 11 9 2 9 -7 0
-13 5 -13 11 0 5 5 7 10 4 6 -3 10 3 10 15 0 12 -4 18 -10 15 -5 -3 -10 -2
-10 4 0 5 6 12 13 14 8 4 9 8 1 14 -13 10 -14 43 -1 43 5 0 7 -7 4 -15 -4 -8
-2 -17 4 -21 6 -3 8 -13 5 -21 -4 -9 -1 -13 6 -10 7 2 11 11 9 18 -3 14 -4 42
-2 68 0 7 7 11 16 7 8 -3 15 -1 15 4 0 6 -4 10 -9 10 -5 0 -17 3 -26 6 -9 4
-15 3 -14 -2 4 -22 -2 -35 -12 -28 -8 4 -7 9 2 15 10 6 11 9 2 9 -7 0 -13 5
-13 11 0 5 4 8 9 5 5 -3 11 1 15 9 3 8 0 14 -5 12 -6 -1 -13 8 -15 21 -3 14 1
22 11 22 8 0 18 0 23 0 4 0 7 -4 7 -9 0 -5 3 -13 8 -17 4 -4 7 2 7 14 0 23
-17 38 -40 34 -11 -2 -16 7 -16 28 -2 28 9 36 39 31 5 -1 5 9 1 21 -4 13 -7
31 -6 41 1 15 -2 16 -14 6 -10 -8 -12 -15 -4 -23 15 -15 12 -26 -7 -26 -14 0
-15 2 -4 9 11 7 11 9 0 13 -11 4 -10 9 4 25 21 24 23 40 2 23 -9 -8 -15 -8
-15 -2 0 6 6 13 13 15 9 4 8 8 -3 16 -13 9 -13 12 -1 20 16 10 5 35 -11 25 -7
-4 -8 -2 -4 5 6 9 11 9 22 0 9 -8 14 -8 14 -1 0 6 -8 16 -17 21 -10 6 -13 11
-7 11 5 0 15 -5 21 -11 9 -9 12 -7 11 7 0 10 1 25 3 33 2 7 -2 16 -9 18 -7 3
-12 1 -11 -4 4 -21 -2 -34 -12 -27 -8 4 -7 9 2 15 10 6 11 9 2 9 -7 0 -13 5
-13 11 0 5 5 7 10 4 6 -3 10 -2 10 4 0 5 3 17 6 25 5 13 2 15 -12 9 -18 -7
-18 -6 -1 11 21 22 23 44 2 26 -8 -7 -15 -9 -15 -5 0 4 8 14 18 22 10 8 12 12
3 11 -7 -2 -15 7 -17 20 -3 14 1 22 11 22 8 0 18 0 23 0 4 0 7 -4 7 -9 0 -5 3
-13 8 -17 4 -4 7 2 7 14 0 23 -17 38 -40 34 -11 -2 -16 7 -16 28 -2 28 9 36
39 31 5 -1 7 4 5 11 -3 7 -14 12 -25 10 -16 -2 -19 3 -19 32 0 19 4 32 8 30 5
-3 8 -1 8 5 0 5 -6 11 -12 14 -7 2 -9 8 -5 13 4 5 12 2 17 -6 6 -8 10 -12 11
-7 1 4 3 12 4 17 1 6 3 15 4 21 0 6 8 8 17 5 17 -7 44 9 44 26 0 7 -5 6 -13 0
-7 -6 -25 -9 -40 -6 -15 2 -27 1 -26 -3 3 -21 -2 -33 -12 -27 -8 4 -7 9 2 15
10 6 11 9 2 9 -7 0 -13 5 -13 11 0 5 5 7 10 4 6 -3 10 3 10 15 0 12 -4 18 -10
15 -5 -3 -10 -2 -10 4 0 5 6 12 13 14 8 4 9 8 1 14 -13 10 -14 43 -1 43 5 0 7
-7 4 -15 -4 -8 -2 -17 4 -21 6 -3 8 -13 5 -21 -4 -9 -1 -13 6 -10 7 2 11 11 9
18 -3 14 -4 42 -2 68 0 7 7 11 16 7 8 -3 15 -1 15 4 0 6 -4 10 -9 10 -5 0 -17
3 -26 6 -9 4 -15 3 -14 -2 4 -22 -2 -35 -12 -28 -8 4 -7 9 2 15 10 6 11 9 2 9
-7 0 -13 5 -13 11 0 5 4 8 9 5 5 -3 11 1 15 9 3 8 0 14 -5 12 -6 -1 -13 8 -15
21 -3 14 1 22 11 22 8 0 18 0 23 0 4 0 7 -4 7 -9 0 -5 3 -13 8 -17 4 -4 7 2 7
14 0 23 -17 38 -40 34 -11 -2 -16 7 -16 28 -1 21 3 30 15 31 9 1 21 2 26 4 6
1 16 3 23 3 7 1 10 7 6 14 -4 6 0 16 8 22 13 10 13 13 2 24 -8 7 -15 10 -15 7
-1 -3 -3 -9 -4 -15 -1 -5 -3 -16 -4 -23 -1 -15 -61 -21 -61 -7 0 5 8 6 18 3
15 -6 15 -5 3 10 -9 12 -10 17 -2 17 7 0 10 4 7 8 -7 12 24 53 35 47 5 -4 9 0
9 7 0 9 3 9 10 -2 9 -14 15 -6 10 15 -1 6 2 7 6 2 4 -4 19 3 33 15 23 21 24
21 8 2 -18 -22 -19 -44 -2 -56 19 -14 26 -8 15 12 -13 24 7 63 29 55 8 -3 11
0 8 9 -4 11 -1 13 10 9 10 -4 14 -2 9 5 -3 6 -3 13 2 16 5 3 9 0 10 -7 1 -10
6 -34 11 -55 1 -1 7 3 15 10 10 9 11 15 2 20 -6 4 -12 17 -12 28 -1 19 0 19
15 6 11 -10 21 -12 31 -6 8 5 18 6 23 3 12 -7 4 30 -8 40 -6 4 -1 7 10 5 12
-2 19 2 17 10 -1 8 2 11 7 8 5 -4 11 -3 14 1 2 5 2 2 0 -5 -1 -8 3 -12 9 -9 7
2 12 10 10 16 -1 6 2 11 8 11 5 0 10 -4 10 -10 0 -5 5 -10 11 -10 5 0 7 5 4
10 -6 9 8 14 28 11 5 -1 6 8 2 19 -4 13 -2 20 6 20 7 0 9 -3 6 -7 -4 -3 1 -12
11 -19 24 -19 37 -17 21 2 -17 21 -20 42 -7 51 6 3 8 1 4 -5 -3 -6 3 -13 14
-17 11 -3 20 -11 20 -18 0 -8 -3 -8 -12 1 -18 18 -33 15 -18 -3 7 -9 19 -14
26 -11 7 3 15 -3 19 -12 3 -9 1 -18 -4 -20 -6 -2 -9 -7 -7 -11 3 -4 -4 -7 -15
-7 -10 0 -21 8 -24 16 -3 9 -12 17 -20 17 -22 0 -18 -12 8 -30 25 -17 19 -28
-15 -32 -38 -4 -39 -5 -34 -14 8 -13 55 -1 69 18 7 9 18 16 25 17 29 2 33 5
27 14 -3 6 3 10 14 10 12 0 21 5 21 11 0 5 5 7 10 4 6 -3 10 -1 10 4 0 6 3 10
8 9 15 -4 50 13 56 28 3 8 2 13 -3 10 -5 -4 -7 4 -4 16 6 23 6 23 -14 3 -11
-11 -16 -21 -12 -23 5 -2 9 -8 9 -14 0 -6 -6 -5 -15 2 -13 11 -18 11 -28 0 -9
-9 -9 -11 0 -6 6 3 14 3 17 -2 2 -4 -4 -9 -15 -9 -17 -2 -24 8 -20 30 0 4 -3
7 -7 7 -16 0 -21 -13 -12 -31 7 -12 6 -20 -2 -25 -7 -4 -10 -4 -6 1 4 4 0 14
-10 21 -16 12 -16 14 3 29 20 16 20 16 -1 12 -41 -9 -43 8 -4 31 33 19 38 20
33 6 -4 -12 -3 -15 5 -10 7 4 18 4 25 -1 20 -12 38 -12 34 0 -2 7 -9 13 -15
13 -7 1 -16 2 -22 3 -5 0 0 11 13 24 12 12 25 21 30 19 4 -1 7 3 7 9 0 5 5 7
11 3 8 -4 7 -9 -2 -15 -7 -4 -17 -5 -21 -3 -4 3 -7 -5 -5 -17 2 -13 9 -25 15
-27 7 -2 10 3 6 12 -6 15 5 21 29 17 4 -1 5 10 1 23 -3 14 -1 27 6 31 9 5 10
2 6 -12 -4 -14 -2 -20 9 -20 10 0 13 8 11 23 -3 17 -1 21 10 17 8 -3 14 1 14
11 0 19 5 20 32 5 16 -9 24 -7 37 6 15 15 14 16 -14 10 l-30 -7 25 14 c14 8
28 10 31 5 4 -5 9 -4 13 2 10 16 26 4 20 -14 -4 -10 0 -13 16 -10 18 3 20 2
10 -10 -7 -8 -7 -15 -1 -19 5 -3 12 0 14 6 4 9 6 10 6 1 2 -21 -15 -23 -35 -4
-16 15 -22 16 -32 4 -7 -7 -10 -14 -7 -14 3 -1 10 -3 15 -4 6 -1 18 -3 28 -4
15 -2 14 -3 -3 -11 -13 -5 -26 -3 -36 6 -8 8 -20 14 -25 14 -5 -1 2 -10 15
-20 13 -11 18 -20 13 -20 -6 0 -14 5 -17 10 -7 12 -25 4 -25 -11 0 -6 5 -7 12
-3 7 4 8 3 4 -5 -4 -6 -12 -9 -17 -6 -5 4 -9 1 -9 -6 0 -6 -9 -1 -20 12 -10
13 -19 19 -20 14 0 -6 5 -16 12 -23 9 -9 9 -12 1 -12 -7 0 -15 9 -18 20 -4 11
-11 18 -16 15 -5 -4 -5 -14 2 -27 8 -15 8 -23 -1 -32 -8 -8 -10 -7 -5 4 4 11
-1 16 -16 17 -17 2 -19 -1 -10 -10 6 -6 11 -16 11 -21 0 -6 -5 -3 -11 7 -15
26 -30 21 -18 -7 11 -23 12 -23 40 -7 16 9 29 20 29 24 0 5 5 5 10 2 6 -3 10
-1 10 6 0 7 3 10 6 6 3 -3 35 10 71 29 36 19 66 34 68 34 8 0 -6 -1071 -15
-1113 -5 -26 -23 -74 -40 -107 -16 -33 -30 -62 -30 -65 0 -11 21 -4 102 35 45
21 86 36 91 31 9 -9 -2 -43 -12 -37 -4 3 -8 -4 -8 -15 -1 -10 -9 -26 -17 -35
-9 -9 -14 -19 -11 -24 3 -5 0 -10 -7 -12 -9 -3 -9 -6 0 -12 7 -4 12 -2 12 4 0
6 5 8 10 5 6 -3 13 1 16 9 3 9 10 14 14 11 13 -8 41 6 34 17 -3 5 -11 5 -19
-2 -9 -8 -14 -6 -19 5 -7 19 11 58 24 50 5 -3 11 -1 15 5 3 5 1 10 -6 10 -7 0
-9 3 -6 7 4 3 2 12 -4 19 -7 9 -6 12 8 10 9 -2 26 5 37 16 15 14 22 15 28 6 7
-12 12 -3 9 16 -1 5 5 4 13 -3 9 -7 14 -22 13 -33 -1 -12 3 -22 8 -25 16 -5
12 41 -5 63 -8 10 -10 16 -5 11 4 -4 17 1 27 10 18 16 19 16 13 -3 -6 -18 -6
-18 12 1 34 37 50 46 50 30 0 -8 -4 -12 -8 -9 -4 2 -11 -1 -14 -7 -5 -7 1 -9
16 -7 13 1 25 9 25 16 1 6 2 17 3 23 0 5 5 8 10 5 5 -4 12 0 14 6 4 10 6 10 6
1 1 -7 9 -13 19 -13 14 0 15 2 2 10 -13 8 -12 10 3 10 12 0 16 4 11 13 -5 8
-3 8 9 -2 14 -11 18 -11 23 3 3 9 10 13 15 10 5 -3 9 2 9 10 0 9 5 16 10 16 7
0 7 -6 0 -20 -7 -13 -7 -20 -1 -20 9 0 37 41 33 48 -7 10 0 14 10 4 19 -19 32
-14 17 6 -13 15 -12 16 4 3 9 -8 21 -11 24 -7 4 4 1 12 -7 17 -11 8 -9 9 9 4
17 -5 21 -4 16 5 -6 9 -3 9 14 1 11 -7 21 -16 21 -22 0 -5 6 -4 14 3 14 13 12
33 -3 24 -4 -3 -13 0 -21 5 -12 8 -11 9 5 7 11 -2 19 2 18 8 -2 11 11 14 54
15 13 1 21 5 18 10 -3 4 4 13 16 19 17 9 20 9 14 0 -5 -8 -3 -11 6 -8 8 3 14
11 14 19 1 8 7 13 14 11 7 -1 24 7 38 18 16 13 34 18 46 14 12 -4 17 -2 13 4
-3 6 -1 14 5 18 7 4 9 3 5 -4 -3 -6 -2 -13 4 -17 5 -3 10 -1 10 6 0 8 3 9 13
0 8 -6 17 -8 20 -4 9 9 9 23 0 22 -5 -1 -15 -1 -23 0 -13 1 -13 2 0 11 9 6 20
5 29 -3 12 -10 14 -9 9 4 -5 13 -1 15 19 11 17 -3 24 -1 19 6 -3 6 -2 13 3 16
5 4 12 2 16 -4 4 -6 12 -7 24 -1 19 11 47 -2 37 -17 -7 -11 18 -24 28 -15 10
10 7 25 -4 18 -5 -3 -10 -2 -10 3 0 14 25 21 40 12 7 -4 9 -13 5 -20 -5 -9 -1
-10 15 -5 16 5 20 4 15 -4 -8 -14 117 49 127 64 4 5 8 6 8 1 0 -5 6 -3 13 3 8
6 17 8 20 5 4 -4 11 5 17 20 13 35 13 36 -5 30 -8 -4 -12 -10 -9 -15 3 -5 -2
-6 -11 -3 -9 4 -15 3 -14 -2 4 -21 -2 -35 -11 -29 -6 4 -9 14 -8 22 2 9 -2 18
-9 20 -7 3 -10 -5 -9 -21 2 -13 -1 -30 -5 -38 -7 -10 -9 -10 -9 2 0 13 -2 13
-11 0 -9 -13 -10 -13 -6 2 4 12 0 16 -14 15 -17 -1 -23 -12 -22 -44 0 -6 -6
-9 -15 -6 -11 5 -13 3 -7 -8 7 -11 6 -12 -7 -2 -8 7 -18 10 -22 6 -4 -4 -4 1
0 10 3 10 3 17 -2 16 -27 -5 -35 2 -28 23 6 21 6 22 -12 8 -18 -14 -18 -14 -5
2 7 10 17 16 21 13 5 -3 11 1 14 7 4 7 4 3 2 -10 -4 -23 29 -56 46 -46 14 9 9
22 -8 20 -21 -1 -26 40 -7 55 7 6 13 8 13 4 0 -4 7 -2 15 5 8 7 15 9 15 4 0
-5 5 -2 10 6 6 9 13 11 18 5 9 -13 32 -18 32 -7 0 4 -6 14 -12 21 -7 8 -8 11
-3 8 17 -9 30 4 54 50 26 53 27 65 0 33 -16 -20 -18 -20 -10 -4 7 15 7 25 -2
34 -10 12 -9 12 6 1 21 -17 22 -3 1 27 -8 12 -10 22 -5 22 6 0 11 -5 11 -11 0
-5 4 -8 8 -5 7 4 8 27 3 55 -1 3 -8 -4 -17 -15 -9 -10 -4 2 9 28 14 26 21 50
16 53 -5 4 -9 2 -9 -2 0 -5 -7 -18 -16 -29 -15 -18 -15 -18 -5 2 6 12 8 24 5
27 -3 3 0 15 6 28 11 20 10 21 -6 15 -15 -6 -16 -4 -7 5 6 6 9 18 6 25 -3 8 0
14 6 14 6 0 10 -3 10 -7 -3 -17 1 -33 9 -32 20 3 31 -2 26 -14 -3 -8 2 -20 11
-27 18 -15 21 0 3 18 -9 9 -9 12 -1 12 7 0 14 -9 18 -19 8 -27 35 -15 35 16 0
13 -4 22 -10 18 -5 -3 -7 -13 -4 -23 4 -13 3 -14 -4 -4 -5 8 -8 25 -6 38 1 16
-2 24 -9 21 -7 -2 -11 -12 -9 -22 2 -11 -1 -15 -10 -12 -7 2 -12 10 -10 17 2
8 -3 10 -13 6 -9 -3 -13 -2 -10 4 5 8 -27 32 -36 27 -2 -1 2 4 11 11 8 7 20
10 26 8 7 -3 15 2 18 10 9 24 7 27 -9 14 -8 -7 -15 -9 -15 -4 0 4 -5 3 -12 -4
-7 -7 -17 -12 -22 -12 -13 1 25 24 38 25 5 0 11 5 13 11 6 17 -29 12 -45 -6
-8 -8 -2 6 11 32 14 26 21 50 16 53 -5 4 -9 2 -9 -2 0 -5 -7 -18 -16 -29 -15
-18 -15 -18 -5 2 6 12 8 24 5 27 -3 3 0 15 6 28 11 19 10 21 -5 15 -15 -5 -16
-4 -5 9 10 12 10 18 -1 33 -13 15 -12 16 4 3 21 -17 22 -3 1 27 -8 12 -10 22
-5 22 6 0 11 -5 11 -11 0 -5 4 -8 8 -5 7 4 8 27 3 55 -1 3 -8 -4 -16 -15 -10
-11 -8 -2 5 23 25 53 25 65 -1 33 -16 -20 -18 -20 -10 -4 7 15 7 25 -2 34 -10
12 -9 12 6 1 21 -17 22 -3 1 27 -8 12 -10 22 -5 22 6 0 11 -5 11 -11 0 -5 4
-8 8 -5 7 4 8 27 3 55 -1 3 -8 -4 -17 -15 -9 -10 -4 2 9 28 14 26 21 50 16 53
-5 4 -9 2 -9 -2 0 -5 -7 -18 -16 -29 -15 -18 -15 -18 -5 2 6 12 8 24 5 27 -3
3 0 15 6 28 11 20 10 21 -6 15 -15 -6 -16 -4 -7 5 6 6 9 18 6 25 -3 8 0 14 6
14 6 0 10 -3 10 -7 -3 -17 1 -33 9 -32 20 3 31 -2 26 -14 -3 -8 2 -20 11 -27
18 -15 21 0 3 18 -9 9 -9 12 -1 12 7 0 14 -9 18 -19 8 -27 35 -15 35 16 0 13
-4 22 -10 18 -5 -3 -7 -13 -4 -23 4 -13 3 -14 -4 -4 -5 8 -8 25 -6 38 1 16 -2
24 -9 21 -7 -2 -11 -12 -9 -22 2 -11 -1 -15 -10 -12 -7 2 -12 10 -10 17 2 8
-3 10 -13 6 -9 -3 -13 -2 -10 4 5 8 -27 32 -36 27 -2 -1 2 4 11 11 8 7 20 10
26 8 7 -3 15 2 18 10 9 24 7 27 -9 14 -8 -7 -15 -9 -15 -4 0 4 -5 3 -12 -4 -7
-7 -17 -12 -22 -12 -13 1 25 24 38 25 5 0 11 5 13 11 6 17 -29 12 -45 -6 -8
-8 -2 6 11 32 14 26 21 50 16 53 -5 4 -9 2 -9 -2 0 -5 -7 -18 -16 -29 -15 -18
-15 -18 -5 2 6 12 8 24 5 27 -3 3 0 15 6 28 11 19 10 21 -5 15 -15 -5 -16 -4
-5 9 10 12 10 18 -1 33 -13 15 -12 16 4 3 21 -17 22 -3 1 27 -8 12 -10 22 -5
22 6 0 11 -5 11 -11 0 -5 4 -8 8 -5 7 4 8 27 3 55 -1 3 -8 -4 -16 -15 -10 -11
-8 -2 5 23 25 53 25 65 -1 33 -16 -20 -18 -20 -10 -4 7 15 7 25 -2 34 -10 12
-9 12 6 1 21 -17 22 -3 1 27 -8 12 -10 22 -5 22 6 0 11 -5 11 -11 0 -5 4 -8 8
-5 7 4 8 27 3 55 -1 3 -8 -4 -17 -15 -9 -10 -4 2 9 28 14 26 21 50 16 53 -5 4
-9 2 -9 -2 0 -5 -7 -18 -16 -29 -15 -18 -15 -18 -5 2 6 12 8 24 5 27 -3 3 0
15 6 28 11 20 10 21 -6 15 -15 -6 -16 -4 -7 5 6 6 9 18 6 25 -3 8 0 14 6 14 6
0 10 -3 10 -7 -3 -17 1 -33 9 -32 20 3 31 -2 26 -14 -3 -8 2 -20 11 -27 18
-15 21 0 3 18 -9 9 -9 12 -1 12 7 0 14 -9 18 -19 8 -27 35 -15 35 16 0 13 -4
22 -10 18 -5 -3 -7 -13 -4 -23 4 -13 3 -14 -4 -4 -5 8 -8 25 -6 38 1 16 -2 24
-9 21 -7 -2 -11 -12 -9 -22 2 -11 -1 -15 -10 -12 -7 2 -12 10 -10 17 2 8 -3
10 -13 6 -9 -3 -13 -2 -10 4 5 8 -27 32 -36 27 -2 -1 2 4 10 11 9 7 20 11 26
9 5 -2 15 5 22 17 8 14 12 16 13 6 0 -13 1 -13 10 0 14 22 12 28 -7 26 -12 -1
-17 6 -16 17 1 12 -4 17 -14 13 -8 -3 -17 -6 -19 -6 -2 0 -4 -5 -4 -11 0 -5 4
-8 9 -5 13 8 21 -18 10 -35 -5 -8 -9 -10 -9 -4 0 5 -5 4 -12 -3 -7 -7 -17 -12
-22 -12 -6 0 2 9 17 19 19 12 24 20 15 23 -7 3 -19 -2 -26 -11 -7 -9 -6 -1 4
18 14 29 14 33 1 28 -10 -4 -13 0 -11 11 5 21 -31 82 -48 83 -7 0 -20 2 -28 3
-8 2 -22 1 -30 -2z m-1660 -1316 c0 -2 -7 -7 -16 -10 -8 -3 -12 -2 -9 4 6 10
25 14 25 6z m-126 -75 c3 -5 -1 -11 -9 -15 -8 -3 -17 0 -21 6 -4 7 -3 8 4 4 7
-4 12 -2 12 3 0 13 7 14 14 2z m1681 -555 c12 -11 12 -15 1 -19 -7 -3 -19 -1
-27 4 -11 7 -11 9 -1 9 7 0 10 5 7 10 -9 15 4 12 20 -4z m-50 -16 c-3 -5 -12
-10 -18 -10 -7 0 -6 4 3 10 19 12 23 12 15 0z m176 -13 c-10 -9 -11 -8 -5 6 3
10 9 15 12 12 3 -3 0 -11 -7 -18z m-1117 -532 c-4 -8 -8 -15 -10 -15 -2 0 -4
7 -4 15 0 8 4 15 10 15 5 0 7 -7 4 -15z m222 -1544 c-4 -5 0 -12 6 -14 21 -9
-9 -25 -39 -21 -30 3 -38 10 -24 19 6 3 11 1 11 -5 0 -6 10 -2 22 10 23 21 33
26 24 11z m948 -649 c2 -4 1 -14 -4 -21 -10 -17 -31 -5 -23 14 6 16 19 20 27
7z m146 -9 c0 -3 -6 -3 -12 0 -7 2 -19 -3 -26 -12 -10 -13 -12 -14 -10 -1 2 8
7 18 12 22 9 6 36 0 36 -9z"/>
<path d="M4565 5760 c-4 -6 -12 -7 -18 -4 -9 5 -9 3 0 -6 10 -10 15 -11 27 -1
11 9 15 9 19 -1 2 -7 8 -9 13 -5 5 4 2 12 -6 17 -19 12 -27 12 -35 0z"/>
<path d="M4617 5744 c-3 -4 -2 -15 4 -25 10 -20 -6 -67 -19 -55 -3 4 -12 -4
-19 -16 -7 -13 -12 -17 -13 -10 0 6 -5 12 -11 12 -14 0 -2 -18 22 -30 17 -10
21 -7 30 19 6 17 16 31 21 31 6 0 5 -6 -2 -15 -9 -11 -10 -18 -1 -28 6 -8 8
-17 4 -20 -3 -4 -2 -7 4 -7 13 0 11 109 -3 133 -5 10 -13 15 -17 11z"/>
<path d="M4590 5720 c0 -5 5 -10 10 -10 6 0 10 5 10 10 0 6 -4 10 -10 10 -5 0
-10 -4 -10 -10z"/>
<path d="M4551 5563 c-10 -19 -9 -22 4 -17 16 6 16 5 19 -38 1 -34 8 -40 24
-22 7 8 8 14 2 14 -5 0 -10 4 -10 8 0 5 7 9 15 9 8 0 11 -5 8 -10 -4 -6 0 -8
10 -4 11 4 15 1 12 -13 -2 -11 0 -22 5 -25 4 -3 8 11 8 30 0 31 -3 35 -23 31
-23 -4 -48 15 -57 44 -4 11 -7 10 -17 -7z"/>
<path d="M4555 5490 c-4 -6 -3 -16 2 -23 10 -15 10 -38 -1 -55 -4 -7 -3 -18 2
-25 6 -7 13 -26 16 -42 2 -17 5 -31 5 -33 1 -1 7 3 15 10 8 7 10 15 5 18 -7 5
-13 34 -23 110 -2 14 -5 27 -6 30 -1 3 -2 8 -1 13 2 10 -7 9 -14 -3z"/>
<path d="M4594 5465 c-15 -23 -15 -27 0 -50 12 -18 13 -25 4 -25 -8 0 -9 -3
-3 -8 6 -4 10 -14 10 -22 0 -8 8 -14 17 -14 11 1 15 -5 13 -17 -2 -10 0 -21 5
-24 4 -3 8 11 8 30 0 25 -5 36 -19 40 -11 4 -17 11 -13 16 3 6 -2 19 -12 30
-17 19 -17 20 1 37 18 16 18 16 6 0 -7 -9 -10 -22 -6 -28 12 -19 20 -10 21 25
1 41 -9 44 -32 10z"/>
<path d="M4632 5415 c-1 -19 3 -35 7 -35 5 0 9 16 9 35 0 19 -3 35 -7 35 -4 0
-8 -16 -9 -35z"/>
<path d="M4555 5330 c-4 -6 -3 -16 2 -23 10 -15 10 -38 -1 -55 -5 -8 -4 -18 3
-25 15 -15 14 -30 -1 -21 -7 5 -9 1 -6 -13 3 -11 1 -28 -5 -38 -6 -12 -6 -16
1 -11 6 3 17 -3 25 -15 9 -12 18 -16 21 -10 4 5 0 13 -7 18 -19 11 -29 53 -11
46 7 -2 11 -10 8 -17 -3 -7 2 -19 11 -26 18 -15 21 0 3 18 -9 9 -9 12 3 12 12
0 12 2 0 9 -8 5 -16 27 -18 48 -3 44 -9 86 -13 93 -1 3 -2 8 -1 13 2 10 -7 9
-14 -3z"/>
<path d="M4594 5305 c-15 -23 -15 -27 0 -50 12 -18 13 -25 4 -25 -9 0 -9 -3 1
-9 8 -5 15 -27 16 -48 2 -39 -20 -77 -37 -66 -6 3 -14 -1 -19 -8 -12 -19 -11
-29 2 -29 5 0 7 5 4 10 -3 6 -2 10 3 10 5 0 14 -11 20 -26 10 -20 9 -31 -3
-52 -8 -15 -14 -21 -15 -14 0 6 -6 12 -12 12 -7 -1 -2 -10 11 -21 13 -11 27
-16 31 -12 12 13 23 56 13 50 -14 -9 -9 29 6 47 16 19 1 22 -17 4 -9 -9 -12
-9 -12 0 0 7 5 12 11 12 5 0 7 4 4 10 -3 6 1 7 10 4 11 -5 14 -2 9 10 -4 9 0
18 9 22 23 9 20 72 -4 79 -11 4 -17 11 -13 16 3 6 -2 19 -12 30 -17 19 -17 20
1 37 18 16 18 16 6 0 -7 -9 -10 -22 -6 -28 12 -19 20 -10 21 25 1 41 -9 44
-32 10z"/>
<path d="M4632 5255 c-1 -19 3 -35 7 -35 5 0 9 16 9 35 0 19 -3 35 -7 35 -4 0
-8 -16 -9 -35z"/>
<path d="M4630 5120 c0 -5 5 -10 10 -10 6 0 10 5 10 10 0 6 -4 10 -10 10 -5 0
-10 -4 -10 -10z"/>
<path d="M4633 5093 c4 -3 -1 -15 -10 -26 -17 -20 -17 -20 1 -13 16 5 17 4 6
-9 -10 -12 -10 -15 0 -15 10 0 10 -3 0 -15 -9 -11 -10 -18 -1 -28 6 -8 8 -17
4 -20 -3 -4 -2 -7 4 -7 5 0 10 30 10 70 0 42 -4 70 -10 70 -6 0 -7 -3 -4 -7z"/>
<path d="M4551 4923 c-10 -19 -9 -22 4 -17 16 6 16 5 19 -38 1 -34 8 -40 24
-22 7 8 8 14 2 14 -5 0 -10 4 -10 8 0 5 7 9 15 9 8 0 11 -5 8 -10 -4 -6 0 -8
10 -4 11 4 15 1 12 -13 -2 -11 0 -22 5 -25 4 -3 8 11 8 30 0 31 -3 35 -23 31
-23 -4 -48 15 -57 44 -4 11 -7 10 -17 -7z"/>
<path d="M4555 4850 c-4 -6 -3 -16 2 -23 10 -15 10 -38 -1 -55 -4 -7 -3 -18 2
-25 6 -7 13 -26 16 -42 2 -17 5 -31 5 -33 1 -1 7 3 15 10 8 7 10 15 5 18 -7 5
-13 34 -23 110 -2 14 -5 27 -6 30 -1 3 -2 8 -1 13 2 10 -7 9 -14 -3z"/>
<path d="M4594 4825 c-15 -23 -15 -27 0 -50 12 -18 13 -25 4 -25 -8 0 -9 -3
-3 -8 6 -4 10 -14 10 -22 0 -8 8 -14 17 -14 11 1 15 -5 13 -17 -2 -10 0 -21 5
-24 4 -3 8 11 8 30 0 25 -5 36 -19 40 -11 4 -17 11 -13 16 3 6 -2 19 -12 30
-17 19 -17 20 1 37 18 16 18 16 6 0 -7 -9 -10 -22 -6 -28 12 -19 20 -10 21 25
1 41 -9 44 -32 10z"/>
<path d="M4632 4775 c-1 -19 3 -35 7 -35 5 0 9 16 9 35 0 19 -3 35 -7 35 -4 0
-8 -16 -9 -35z"/>
<path d="M3149 4694 c-23 -22 -30 -24 -48 -15 -11 7 -21 9 -21 7 0 -3 9 -10
20 -16 24 -13 54 0 70 30 14 26 10 25 -21 -6z"/>
<path d="M4555 4690 c-4 -6 -3 -16 2 -23 10 -15 10 -38 -1 -55 -5 -8 -4 -18 3
-25 15 -15 14 -30 -1 -21 -7 5 -9 1 -6 -13 3 -11 1 -28 -5 -38 -6 -12 -6 -16
1 -11 6 3 17 -3 25 -15 9 -12 18 -16 21 -10 4 5 0 13 -7 18 -19 11 -29 53 -11
46 7 -2 11 -10 8 -17 -3 -7 2 -19 11 -26 18 -15 21 0 3 18 -9 9 -9 12 3 12 12
0 12 2 0 9 -8 5 -16 27 -18 48 -3 44 -9 86 -13 93 -1 3 -2 8 -1 13 2 10 -7 9
-14 -3z"/>
<path d="M4594 4665 c-15 -23 -15 -27 0 -50 12 -18 13 -25 4 -25 -9 0 -9 -3 1
-9 8 -5 15 -27 16 -48 2 -39 -20 -77 -37 -66 -6 3 -14 -1 -19 -8 -12 -19 -11
-29 2 -29 5 0 7 5 4 10 -3 6 -2 10 3 10 5 0 14 -11 20 -26 10 -20 9 -31 -3
-52 -8 -15 -14 -21 -15 -14 0 6 -6 12 -12 12 -7 -1 -2 -10 11 -21 13 -11 27
-16 31 -12 12 13 23 56 13 50 -14 -9 -9 29 6 47 16 19 1 22 -17 4 -9 -9 -12
-9 -12 0 0 7 5 12 11 12 5 0 7 4 4 10 -3 6 1 7 10 4 11 -5 14 -2 9 10 -4 9 0
18 9 22 23 9 20 72 -4 79 -11 4 -17 11 -13 16 3 6 -2 19 -12 30 -17 19 -17 20
1 37 18 16 18 16 6 0 -7 -9 -10 -22 -6 -28 12 -19 20 -10 21 25 1 41 -9 44
-32 10z"/>
<path d="M3063 4662 c-8 -5 -9 -13 -3 -22 7 -10 10 -11 10 -2 0 6 5 12 11 12
5 0 8 -4 5 -9 -3 -5 0 -14 7 -19 9 -8 16 -6 24 7 10 16 8 20 -13 30 -29 13
-26 13 -41 3z"/>
<path d="M4632 4615 c-1 -19 3 -35 7 -35 5 0 9 16 9 35 0 19 -3 35 -7 35 -4 0
-8 -16 -9 -35z"/>
<path d="M2995 4600 c-3 -5 -1 -10 4 -10 6 0 11 5 11 10 0 6 -2 10 -4 10 -3 0
-8 -4 -11 -10z"/>
<path d="M3025 4600 c3 -5 8 -10 11 -10 2 0 4 5 4 10 0 6 -5 10 -11 10 -5 0
-7 -4 -4 -10z"/>
<path d="M2876 4571 c-3 -5 1 -11 9 -15 8 -3 15 -1 15 4 0 13 -18 22 -24 11z"/>
<path d="M2912 4546 c2 -22 3 -23 25 -9 22 14 34 31 14 18 -5 -3 -12 -1 -16 5
-11 18 -25 10 -23 -14z"/>
<path d="M2756 4473 c-4 -8 -13 -13 -21 -9 -8 3 -17 1 -21 -5 -3 -6 -12 -8
-19 -5 -8 3 -17 -1 -22 -7 -13 -19 -9 -60 7 -65 13 -5 13 -3 0 13 -14 17 -14
17 7 4 15 -9 19 -17 13 -23 -7 -7 -17 -6 -30 2 -23 14 -26 4 -7 -22 12 -16 14
-16 26 -2 8 9 20 16 28 16 10 0 13 6 9 16 -3 9 -6 18 -6 20 0 3 -4 3 -9 0 -4
-3 -17 4 -27 17 l-19 22 24 -20 c22 -19 23 -19 20 -1 -2 11 3 21 11 23 12 4
12 3 2 -5 -11 -7 -11 -10 2 -15 19 -7 46 1 46 14 0 12 -17 11 -23 -1 -3 -6 -4
-5 -3 2 4 19 22 20 39 3 9 -8 17 -12 20 -8 2 5 -7 18 -19 29 -19 18 -24 19
-28 7z"/>
<path d="M2825 4480 c-3 -5 1 -10 9 -10 8 0 18 5 21 10 3 6 -1 10 -9 10 -8 0
-18 -4 -21 -10z"/>
<path d="M4630 4480 c0 -5 5 -10 10 -10 6 0 10 5 10 10 0 6 -4 10 -10 10 -5 0
-10 -4 -10 -10z"/>
<path d="M4633 4453 c4 -3 -1 -15 -10 -26 -17 -20 -17 -20 1 -13 16 5 17 4 6
-9 -10 -12 -10 -15 0 -15 10 0 10 -3 0 -15 -9 -11 -10 -18 -1 -28 6 -8 8 -17
4 -20 -3 -4 -2 -7 4 -7 5 0 10 30 10 70 0 42 -4 70 -10 70 -6 0 -7 -3 -4 -7z"/>
<path d="M2730 4400 c13 -23 20 -26 20 -6 0 8 -7 16 -15 20 -13 4 -14 2 -5
-14z"/>
<path d="M2590 4403 c0 -6 7 -13 15 -17 18 -7 45 2 45 15 0 6 -8 6 -18 0 -13
-7 -23 -6 -30 1 -8 8 -12 9 -12 1z"/>
<path d="M2545 4369 c-11 -17 1 -21 15 -4 8 9 8 15 2 15 -6 0 -14 -5 -17 -11z"/>
<path d="M2611 4364 c-15 -11 -20 -22 -16 -37 2 -12 2 -17 -1 -10 -4 10 -8 10
-19 0 -7 -7 -10 -16 -7 -21 3 -5 -1 -6 -8 -1 -8 5 -11 4 -6 -3 10 -17 67 19
61 39 -3 9 0 21 8 27 10 8 13 6 14 -11 2 -17 0 -19 -7 -7 -5 8 -10 10 -10 4 0
-16 10 -23 25 -18 13 5 9 40 -5 49 -4 2 -17 -3 -29 -11z"/>
<path d="M2512 4358 c-14 -17 -6 -51 10 -42 6 4 5 10 -3 15 -7 4 -11 11 -8 14
4 3 11 0 17 -8 15 -18 -1 -39 -32 -42 -23 -3 -31 5 -27 28 2 10 -17 9 -24 -2
-3 -6 -14 -8 -25 -6 -11 2 -22 -1 -25 -6 -12 -19 -15 -58 -5 -64 5 -3 11 -1
11 4 2 15 4 23 14 44 7 17 8 17 22 -3 10 -14 22 -19 38 -16 14 3 28 0 31 -6 4
-7 2 -8 -4 -4 -7 4 -12 2 -12 -4 0 -6 -8 -9 -17 -6 -21 6 -51 -9 -40 -21 5 -4
12 -1 17 7 7 11 10 12 10 2 0 -7 4 -10 10 -7 6 3 7 -1 4 -9 -3 -9 -1 -16 5
-16 6 0 11 9 11 21 0 11 5 17 10 14 6 -3 10 -2 10 4 0 5 9 13 21 16 12 4 18
12 15 21 -3 8 4 23 15 33 12 11 18 25 14 31 -5 8 -10 9 -18 1 -16 -16 -25 -14
-29 6 -3 14 -4 14 -16 1z m-48 -64 c3 -8 2 -12 -4 -9 -6 3 -10 10 -10 16 0 14
7 11 14 -7z m66 -14 c0 -5 -2 -10 -4 -10 -3 0 -8 5 -11 10 -3 6 -1 10 4 10 6
0 11 -4 11 -10z"/>
<path d="M4551 4283 c-10 -19 -9 -22 4 -17 16 6 16 5 19 -38 1 -34 8 -40 24
-22 7 8 8 14 2 14 -5 0 -10 4 -10 8 0 5 7 9 15 9 8 0 11 -5 8 -10 -4 -6 0 -8
10 -4 11 4 15 1 12 -13 -2 -11 0 -22 5 -25 4 -3 8 11 8 30 0 31 -3 35 -23 31
-23 -4 -48 15 -57 44 -4 11 -7 10 -17 -7z"/>
<path d="M2435 4217 c-11 -6 -29 -12 -40 -13 -11 -1 -23 -3 -27 -3 -9 -1 -4
-28 7 -38 4 -4 5 -3 2 3 -4 6 5 16 19 23 14 6 23 8 20 3 -2 -4 11 -8 30 -8 37
0 40 3 21 28 -10 13 -17 14 -32 5z"/>
<path d="M4555 4210 c-4 -6 -3 -16 2 -23 10 -15 10 -38 0 -54 -4 -7 -2 -20 4
-31 9 -15 6 -28 -15 -69 -14 -28 -29 -53 -34 -55 -6 -2 -6 -13 -1 -26 8 -21
10 -22 37 -8 28 14 67 7 43 -8 -6 -4 -11 -12 -11 -18 0 -6 7 -5 17 3 9 8 17
13 17 11 1 -2 8 0 18 3 10 4 16 18 16 41 0 40 -2 40 -35 14 -27 -21 -24 -26 6
-10 16 8 17 6 13 -16 -2 -13 -9 -27 -14 -30 -6 -4 -8 2 -4 14 5 15 2 20 -11
18 -14 -1 -17 5 -15 24 2 24 2 24 -12 6 -9 -10 -13 -23 -9 -29 3 -6 1 -7 -5
-3 -7 4 -12 1 -12 -6 0 -9 -3 -9 -10 2 -8 12 -10 12 -10 1 0 -8 -3 -12 -6 -9
-3 4 2 19 11 35 15 27 15 27 10 3 -6 -24 -5 -24 9 -6 13 16 13 22 3 35 -11 14
-10 14 6 2 10 -8 17 -9 17 -3 0 6 -5 14 -11 17 -7 5 -5 14 5 29 8 13 12 36 10
52 -3 16 -6 40 -8 54 -2 14 -5 27 -6 30 -1 3 -2 8 -1 13 2 10 -7 9 -14 -3z"/>
<path d="M4594 4185 c-15 -23 -15 -27 0 -50 11 -17 13 -25 4 -25 -6 0 -4 -6 7
-13 10 -8 15 -19 12 -24 -4 -6 0 -14 9 -17 8 -3 13 -10 9 -15 -3 -5 -1 -12 4
-15 5 -3 9 10 9 29 0 25 -5 36 -19 40 -11 4 -17 11 -13 16 3 6 -2 19 -12 30
-17 19 -17 20 1 37 18 16 18 16 6 0 -7 -9 -10 -22 -6 -28 12 -19 20 -10 21 25
1 41 -9 44 -32 10z"/>
<path d="M2390 4171 c0 -6 8 -16 18 -23 19 -14 26 -48 10 -48 -7 0 -7 -4 -1
-12 5 -7 9 -27 8 -44 -2 -23 2 -31 14 -30 10 1 16 -8 17 -24 2 -35 -6 -52 -23
-46 -10 4 -13 1 -8 -13 5 -15 1 -19 -14 -18 -11 0 -17 5 -15 9 3 5 9 6 13 4
10 -7 8 36 -3 54 -9 13 -8 13 7 1 20 -16 21 -5 3 28 -8 15 -16 20 -20 12 -4
-6 -2 -11 5 -11 8 0 8 -4 1 -13 -7 -8 -7 -18 -2 -27 6 -10 4 -21 -7 -32 -9
-10 -13 -21 -9 -25 13 -14 41 -12 52 3 10 13 12 13 18 -2 8 -21 -21 -55 -43
-52 -9 2 -16 -1 -16 -7 -1 -5 -9 -25 -18 -43 -19 -35 -15 -55 8 -45 8 3 16 0
17 -6 4 -30 2 -36 -9 -37 -7 -1 -17 -2 -22 -3 -11 -1 -8 -27 4 -38 4 -4 5 -2
1 5 -7 11 5 17 27 13 5 -1 5 4 1 10 -4 8 -3 9 5 5 16 -10 43 14 36 32 -3 8 1
24 8 36 10 15 15 56 16 134 0 63 3 118 6 123 4 5 3 9 -2 9 -4 0 -7 26 -5 59 3
49 1 59 -14 65 -12 5 -23 1 -31 -10 -12 -16 -13 -17 -13 -1 0 9 -4 17 -10 17
-5 0 -10 -4 -10 -9z m64 -55 c2 -45 -6 -60 -18 -31 -3 8 0 15 6 15 7 0 6 5 -2
15 -10 12 -10 15 1 16 10 0 10 2 2 5 -7 3 -9 12 -6 20 9 23 14 10 17 -40z m4
-74 c2 -7 -1 -12 -8 -12 -6 0 -9 4 -6 9 4 5 1 12 -4 14 -6 3 -5 4 2 3 6 -1 14
-8 16 -14z m-1 -184 c0 -13 -1 -17 -4 -10 -3 6 -10 9 -16 5 -7 -4 -6 1 2 10
17 21 17 21 18 -5z m-46 -32 c-10 -11 -8 -17 9 -29 14 -10 18 -17 10 -22 -6
-4 -8 -15 -5 -25 3 -10 2 -21 -3 -24 -5 -3 -8 10 -6 29 1 24 -1 32 -11 29 -21
-9 -28 16 -10 36 10 11 14 24 10 32 -6 10 -5 10 5 1 10 -10 11 -15 1 -27z m40
-19 c-13 -13 -31 0 -24 19 4 11 8 12 20 3 9 -8 10 -16 4 -22z"/>
<path d="M2390 3800 c0 -5 5 -10 11 -10 5 0 7 5 4 10 -3 6 -8 10 -11 10 -2 0
-4 -4 -4 -10z"/>
<path d="M4632 4135 c-1 -19 3 -35 7 -35 5 0 9 16 9 35 0 19 -3 35 -7 35 -4 0
-8 -16 -9 -35z"/>
<path d="M2375 4122 c-17 -12 -16 -32 2 -25 12 5 15 2 10 -10 -7 -18 7 -32 24
-22 7 5 3 15 -10 29 -12 12 -18 26 -14 29 9 9 1 9 -12 -1z"/>
<path d="M4586 4069 c-16 -24 -13 -39 9 -39 8 0 17 -4 20 -10 3 -6 -1 -7 -10
-4 -11 5 -14 2 -9 -10 5 -12 10 -14 19 -6 19 16 14 49 -8 56 -15 5 -17 8 -6
15 7 4 11 11 7 14 -3 4 -13 -4 -22 -16z"/>
<path d="M2430 4000 c0 -5 5 -10 10 -10 6 0 10 5 10 10 0 6 -4 10 -10 10 -5 0
-10 -4 -10 -10z"/>
<path d="M2437 3973 c-4 -3 -7 -11 -7 -17 0 -6 5 -5 12 2 6 6 9 14 7 17 -3 3
-9 2 -12 -2z"/>
<path d="M4430 3937 c0 -5 -7 -7 -15 -4 -18 7 -30 -9 -14 -19 8 -4 7 -9 -2
-16 -10 -7 -8 -8 6 -3 40 14 59 14 74 2 14 -11 14 -10 2 6 -7 9 -9 17 -4 17 5
0 10 6 10 13 0 8 -12 13 -29 13 -15 0 -28 -4 -28 -9z m14 -15 c3 -5 -1 -9 -9
-9 -8 0 -12 4 -9 9 3 4 7 8 9 8 2 0 6 -4 9 -8z"/>
<path d="M4221 3843 c4 -21 -2 -32 -15 -27 -7 3 -20 -6 -29 -19 -11 -17 -23
-24 -41 -22 -28 3 -33 -4 -14 -23 9 -9 9 -12 -2 -12 -12 0 -13 -2 -1 -9 9 -6
10 -11 2 -15 -10 -7 -15 5 -12 30 1 6 -6 17 -14 24 -13 11 -21 9 -46 -9 -16
-12 -35 -19 -41 -15 -6 4 -8 3 -5 -3 10 -16 -18 -34 -39 -27 -12 5 -9 -1 8
-15 15 -12 32 -19 38 -16 17 10 11 25 -7 18 -15 -6 -16 -5 -3 9 8 9 16 12 18
7 2 -4 9 -3 17 4 7 7 11 15 8 19 -2 4 3 5 12 2 9 -4 15 -2 13 4 -4 14 16 16
20 3 2 -6 -2 -11 -8 -11 -7 0 -6 -6 4 -15 8 -9 13 -22 9 -31 -3 -8 -8 -12 -11
-10 -3 3 -11 1 -19 -5 -10 -9 -13 -8 -13 2 0 11 -2 11 -9 -1 -6 -8 -8 -17 -5
-21 5 -9 74 22 74 34 0 4 5 5 10 2 6 -3 10 -1 10 5 0 6 4 9 8 6 14 -8 35 11
27 25 -7 10 -10 8 -15 -6 -6 -17 -7 -17 -13 -2 -4 10 -2 17 5 17 6 0 5 6 -3
18 -10 13 -8 12 10 -3 21 -17 23 -18 18 -3 -3 10 -2 20 3 23 12 7 40 -5 40
-18 0 -7 -4 -7 -12 1 -17 17 -33 15 -18 -3 9 -11 9 -15 1 -15 -7 0 -9 -4 -6
-10 3 -5 11 -10 16 -10 6 0 7 5 3 12 -5 8 -2 9 10 5 11 -5 15 -3 10 5 -5 8 -2
9 9 5 10 -3 17 -2 17 3 0 6 3 9 8 9 21 -4 32 3 32 19 0 14 -2 14 -9 3 -5 -8
-20 -16 -33 -18 -17 -2 -19 -1 -8 6 8 5 18 7 22 5 4 -3 8 -1 8 4 0 16 -12 21
-29 12 -20 -10 -50 3 -32 14 6 4 11 1 11 -6 0 -9 3 -9 10 2 5 8 10 11 10 5 0
-5 7 -2 14 8 12 16 14 16 20 2 3 -9 11 -13 16 -10 6 4 10 3 9 -2 -3 -20 2 -34
11 -28 6 4 8 10 5 15 -3 4 4 6 15 3 11 -3 20 0 20 6 0 5 8 8 18 5 15 -5 15 -4
-1 6 -12 8 -22 8 -30 2 -8 -7 -20 -6 -37 3 -14 8 -19 14 -12 15 7 0 10 5 6 11
-3 6 -9 7 -13 2 -7 -11 -22 -10 -39 0 -7 5 -12 5 -11 0z"/>
<path d="M2461 3776 c-6 -7 -9 -20 -6 -28 9 -24 -27 -54 -57 -49 -15 2 -8 -18
10 -31 9 -7 17 -19 17 -27 0 -8 7 -17 15 -19 13 -4 13 -3 2 10 -10 13 -10 17
0 21 10 4 10 6 -1 6 -11 1 -11 4 -1 16 15 18 0 20 -20 3 -12 -11 -12 -10 -1 5
23 30 35 14 35 -47 1 -42 -3 -60 -13 -64 -11 -4 -10 -7 5 -14 15 -7 13 -7 -7
-3 -18 3 -26 0 -27 -10 -1 -8 -3 -22 -4 -30 -1 -8 -5 -12 -9 -9 -5 2 -5 12 -2
22 5 14 3 15 -7 5 -11 -10 -11 -16 3 -30 10 -12 13 -23 7 -33 -5 -8 -7 -18 -4
-22 3 -4 -2 -21 -11 -37 -18 -36 -6 -72 31 -92 17 -9 21 -16 14 -24 -6 -7 -8
-19 -4 -28 3 -8 1 -17 -3 -20 -5 -3 -9 10 -9 28 1 19 -3 34 -9 33 -5 -1 -8 -9
-6 -18 7 -31 6 -45 -6 -46 -7 -1 -17 -2 -22 -3 -11 -1 -8 -27 4 -38 4 -4 5 -2
1 5 -7 11 5 17 27 13 5 -1 5 4 1 10 -4 8 -3 9 5 5 16 -10 43 14 36 32 -3 8 1
24 8 36 17 25 23 191 8 200 -5 4 -8 -25 -6 -70 1 -42 0 -72 -4 -68 -11 16 -41
16 -35 0 7 -18 -12 -31 -22 -15 -4 8 -3 9 4 5 14 -8 12 20 -3 44 -8 13 -7 13
8 1 14 -11 20 -11 32 -1 8 7 15 17 15 22 0 6 -7 5 -15 -2 -13 -10 -18 -11 -28
-1 -9 10 -9 11 3 8 8 -2 12 -2 7 0 -4 3 -5 9 -1 14 3 5 0 9 -7 9 -9 0 -9 4 1
15 6 8 9 19 5 25 -3 5 -1 10 4 10 6 0 10 3 10 8 -4 22 3 34 16 28 9 -3 19 3
26 16 6 11 7 18 2 15 -4 -3 -8 28 -8 68 0 46 4 71 10 67 6 -3 4 2 -4 11 -7 9
-9 17 -4 17 5 0 9 14 8 30 0 35 1 34 -14 16z m-10 -449 c-13 -13 -31 0 -24 19
4 11 8 12 20 3 9 -8 10 -16 4 -22z"/>
<path d="M4027 3698 c-24 -33 -25 -33 -46 -14 -21 19 -21 19 -47 -9 -22 -24
-23 -27 -6 -23 10 3 26 1 35 -3 9 -6 18 -5 21 0 4 5 -3 12 -14 16 -11 3 -20
10 -20 15 0 5 13 1 30 -8 16 -9 30 -21 30 -25 0 -5 -4 -5 -10 -2 -5 3 -10 1
-10 -5 0 -7 -9 -9 -22 -5 -18 5 -20 4 -8 -4 23 -16 3 -13 -31 5 -24 12 -34 13
-45 3 -8 -6 -14 -16 -14 -21 0 -6 7 -5 15 2 12 10 19 10 37 -2 21 -14 27 -13
66 5 23 12 41 26 38 33 -6 14 10 39 26 40 40 3 41 4 28 19 -18 21 -24 19 -53
-17z"/>
<path d="M3910 3683 c0 -14 -2 -15 -9 -4 -5 8 -11 9 -15 3 -8 -14 8 -24 28
-16 17 7 22 34 6 34 -5 0 -10 -8 -10 -17z"/>
<path d="M2375 3642 c-16 -12 -16 -32 0 -26 12 5 14 -1 11 -29 -4 -25 -1 -37
10 -41 9 -3 12 -1 9 4 -3 5 5 15 19 21 21 10 23 15 15 30 -5 11 -14 19 -20 19
-6 0 -7 -6 -3 -12 4 -7 -2 -5 -14 6 -12 10 -19 23 -16 27 6 11 2 11 -11 1z
m54 -55 c-2 -1 -13 -9 -24 -17 -19 -14 -19 -14 -6 3 7 9 18 17 24 17 6 0 8 -1
6 -3z"/>
<path d="M3830 3642 c0 -5 -12 -14 -26 -21 -21 -9 -30 -9 -42 1 -9 7 -13 8 -9
2 10 -16 -18 -49 -42 -49 -11 0 -21 -4 -22 -10 -1 -5 -10 -22 -21 -37 -11 -16
-15 -28 -9 -28 6 0 15 9 21 20 6 11 16 17 25 14 8 -4 12 -11 9 -16 -4 -7 -9
-6 -13 1 -4 6 -11 3 -19 -9 -7 -12 -8 -21 -2 -25 6 -3 10 -1 10 5 0 6 5 8 10
5 6 -3 10 -1 10 5 0 7 6 10 14 7 8 -3 20 1 26 8 7 8 16 12 21 9 5 -3 9 0 9 6
0 6 4 8 10 5 6 -3 7 1 4 10 -4 8 0 23 7 32 12 15 12 16 -4 10 -10 -4 -21 -7
-23 -7 -3 0 -2 -5 1 -11 4 -5 -5 -21 -20 -35 -24 -22 -26 -23 -20 -4 4 11 3
20 -2 19 -19 -3 -33 2 -33 12 0 8 5 8 15 -1 9 -8 15 -8 15 -2 0 6 9 13 19 17
13 4 18 12 15 23 -5 15 -4 15 5 2 9 -12 12 -13 20 -1 6 9 11 10 15 2 4 -6 20
-9 36 -7 15 2 34 -1 42 -6 10 -7 9 -8 -4 -4 -10 3 -18 2 -18 -3 0 -4 -12 -8
-27 -7 -29 1 -40 -23 -15 -31 6 -3 12 0 12 7 0 6 -5 8 -12 4 -7 -5 -8 -3 -3 5
5 9 11 9 17 3 9 -9 33 0 92 35 5 3 1 10 -8 15 -11 6 -22 6 -31 -2 -12 -10 -17
-7 -26 14 -12 25 -29 35 -29 18z m10 -22 c-8 -5 -19 -10 -25 -10 -5 0 -3 5 5
10 8 5 20 10 25 10 6 0 3 -5 -5 -10z m70 -14 c0 -3 -4 -8 -10 -11 -5 -3 -10
-1 -10 4 0 6 5 11 10 11 6 0 10 -2 10 -4z"/>
<path d="M3642 3544 c-16 -15 -19 -24 -12 -29 7 -4 17 -2 23 4 6 6 7 11 2 11
-5 0 -1 6 10 13 10 8 14 16 9 19 -5 2 -19 -6 -32 -18z"/>
<path d="M3745 3560 c-3 -5 1 -10 9 -10 9 0 16 5 16 10 0 6 -4 10 -9 10 -6 0
-13 -4 -16 -10z"/>
<path d="M3602 3541 c-8 -4 -12 -10 -11 -12 2 -2 -1 -11 -7 -19 -11 -18 -44
-23 -44 -6 -1 6 -10 0 -20 -13 -11 -13 -20 -18 -20 -12 0 6 -5 11 -11 11 -6 0
-7 -5 -2 -12 13 -21 12 -68 -2 -68 -20 0 -36 26 -29 46 4 13 3 15 -3 6 -5 -7
-16 -10 -25 -7 -8 3 -21 -1 -28 -9 -7 -9 -17 -13 -22 -10 -6 4 -5 -2 1 -14 8
-15 7 -23 -3 -31 -7 -6 -17 -7 -21 -3 -5 4 -5 1 -1 -5 4 -7 2 -13 -3 -13 -6 0
-11 -5 -11 -11 0 -6 6 -9 13 -6 6 2 19 1 28 -4 22 -11 48 6 32 22 -9 9 -16 9
-28 -1 -13 -11 -14 -10 -9 4 3 9 13 16 21 16 8 0 11 5 8 10 -6 9 8 14 28 11 4
0 7 3 7 7 0 17 -13 21 -34 11 -21 -10 -21 -10 -1 6 19 15 21 14 37 -6 10 -11
16 -25 13 -29 -3 -5 1 -11 7 -14 7 -3 4 -4 -6 -3 -10 1 -21 -4 -23 -10 -4 -10
1 -11 19 -4 13 5 22 15 20 21 -2 7 3 10 12 7 17 -7 96 31 96 45 0 6 6 8 14 5
7 -3 22 0 32 8 11 7 23 13 29 13 21 1 13 18 -15 34 -20 11 -28 22 -24 32 7 18
5 19 -14 7z m14 -56 c-2 -14 -6 -28 -11 -33 -4 -4 -5 -1 -1 6 6 9 -1 12 -27 9
-39 -4 -67 6 -48 17 6 4 11 2 11 -5 0 -8 4 -8 15 1 12 10 15 10 15 -1 0 -12 2
-12 9 -1 4 8 12 13 17 12 5 -1 10 4 13 11 2 7 -1 9 -9 4 -9 -5 -11 -4 -6 4 11
18 25 3 22 -24z m38 -3 c3 -5 -1 -9 -9 -9 -8 0 -15 4 -15 9 0 4 4 8 9 8 6 0
12 -4 15 -8z m-118 -33 c8 -14 -18 -31 -30 -19 -9 9 0 30 14 30 5 0 12 -5 16
-11z m34 -9 c0 -5 -4 -10 -10 -10 -5 0 -10 5 -10 10 0 6 5 10 10 10 6 0 10 -4
10 -10z"/>
<path d="M3510 3439 c0 -5 5 -7 10 -4 6 3 10 8 10 11 0 2 -4 4 -10 4 -5 0 -10
-5 -10 -11z"/>
<path d="M2435 3520 c-3 -5 -1 -10 4 -10 6 0 11 5 11 10 0 6 -2 10 -4 10 -3 0
-8 -4 -11 -10z"/>
<path d="M2460 3520 c0 -5 5 -10 10 -10 6 0 10 5 10 10 0 6 -4 10 -10 10 -5 0
-10 -4 -10 -10z"/>
<path d="M2427 3478 c-3 -12 -2 -29 3 -37 5 -9 10 -11 11 -6 0 6 2 20 3 33 4
30 -10 38 -17 10z"/>
<path d="M3416 3393 c-3 -7 -2 -13 3 -13 5 0 14 6 20 13 8 10 7 14 -4 14 -8 0
-16 -6 -19 -14z"/>
<path d="M2461 3296 c-6 -7 -9 -20 -6 -28 9 -24 -27 -54 -57 -49 -15 2 -8 -18
10 -31 19 -14 26 -48 10 -48 -7 0 -7 -4 -1 -12 5 -7 9 -27 8 -44 -2 -23 2 -31
14 -30 10 1 16 -8 17 -24 2 -35 -6 -52 -23 -46 -10 4 -13 1 -8 -13 5 -15 1
-19 -14 -18 -11 0 -17 5 -15 9 3 5 9 6 13 4 10 -7 8 36 -3 54 -9 13 -8 13 7 1
20 -16 21 -5 3 28 -8 15 -16 20 -20 12 -4 -6 -2 -11 5 -11 8 0 8 -4 1 -13 -7
-8 -7 -18 -2 -27 6 -10 4 -21 -7 -32 -9 -10 -13 -21 -9 -25 13 -14 41 -12 52
3 10 13 12 13 18 -2 8 -21 -21 -55 -43 -52 -9 2 -16 -1 -16 -7 -1 -5 -9 -25
-18 -43 -19 -35 -15 -55 8 -45 8 3 16 0 17 -6 4 -30 2 -36 -9 -37 -7 -1 -17
-2 -22 -3 -11 -1 -8 -27 4 -38 4 -4 5 -2 1 5 -7 11 5 17 27 13 5 -1 5 4 1 10
-4 8 -3 9 5 5 16 -10 43 14 36 32 -3 8 1 24 8 36 10 15 15 56 16 134 0 63 3
118 6 123 4 5 3 9 -2 9 -4 0 -8 31 -8 69 0 43 4 67 10 63 6 -3 4 2 -4 11 -7 9
-9 17 -4 17 5 0 9 14 8 30 0 35 1 34 -14 16z m-7 -134 c1 -51 -6 -66 -18 -37
-3 8 0 15 6 15 7 0 6 5 -2 15 -10 12 -10 15 1 16 11 0 11 2 1 6 -10 4 -10 8
-1 19 14 17 -2 19 -21 2 -12 -11 -12 -10 -1 5 22 29 35 14 35 -41z m4 -80 c2
-7 -1 -12 -8 -12 -6 0 -9 4 -6 9 4 5 1 12 -4 14 -6 3 -5 4 2 3 6 -1 14 -8 16
-14z m-1 -184 c0 -13 -1 -17 -4 -10 -3 6 -10 9 -16 5 -7 -4 -6 1 2 10 17 21
17 21 18 -5z m-46 -32 c-10 -11 -8 -17 9 -29 14 -10 18 -17 10 -22 -6 -4 -8
-15 -5 -25 3 -10 2 -21 -3 -24 -5 -3 -8 10 -6 29 1 24 -1 32 -11 29 -21 -9
-28 16 -10 36 10 11 14 24 10 32 -6 10 -5 10 5 1 10 -10 11 -15 1 -27z m40
-19 c-13 -13 -31 0 -24 19 4 11 8 12 20 3 9 -8 10 -16 4 -22z"/>
<path d="M2390 2840 c0 -5 5 -10 11 -10 5 0 7 5 4 10 -3 6 -8 10 -11 10 -2 0
-4 -4 -4 -10z"/>
<path d="M2375 3162 c-17 -12 -16 -32 2 -25 12 5 15 2 10 -10 -7 -18 7 -32 24
-22 7 5 3 15 -10 29 -12 12 -18 26 -14 29 9 9 1 9 -12 -1z"/>
<path d="M2430 3040 c0 -5 5 -10 10 -10 6 0 10 5 10 10 0 6 -4 10 -10 10 -5 0
-10 -4 -10 -10z"/>
<path d="M2437 3013 c-4 -3 -7 -11 -7 -17 0 -6 5 -5 12 2 6 6 9 14 7 17 -3 3
-9 2 -12 -2z"/>
<path d="M4615 3010 c-3 -4 -2 -15 1 -23 7 -18 34 -11 34 8 0 16 -27 28 -35
15z"/>
<path d="M4577 2993 c-6 -10 -3 -70 3 -76 3 -3 11 1 18 9 9 10 9 14 1 14 -6 0
-9 6 -6 14 3 7 0 20 -6 27 -10 11 -9 11 5 0 10 -7 15 -18 11 -24 -4 -6 -1 -7
7 -2 9 6 11 4 5 -5 -6 -10 -4 -12 8 -7 11 4 15 1 12 -13 -2 -11 0 -22 5 -25 4
-3 8 11 8 31 0 26 -4 34 -14 30 -7 -3 -18 4 -24 14 -11 21 -25 26 -33 13z"/>
<path d="M4555 2930 c-4 -6 -3 -16 2 -23 10 -15 10 -38 -1 -55 -4 -7 -3 -18 2
-25 6 -7 13 -26 16 -42 2 -17 5 -31 5 -33 1 -1 7 3 15 10 8 7 10 15 5 18 -7 5
-13 34 -23 110 -2 14 -5 27 -6 30 -1 3 -2 8 -1 13 2 10 -7 9 -14 -3z"/>
<path d="M4594 2905 c-15 -23 -15 -27 0 -50 12 -18 13 -25 4 -25 -8 0 -9 -3
-3 -8 6 -4 10 -14 10 -22 0 -8 8 -14 17 -14 11 1 15 -5 13 -17 -2 -10 0 -21 5
-24 4 -3 8 11 8 30 0 25 -5 36 -19 40 -11 4 -17 11 -13 16 3 6 -2 19 -12 30
-17 19 -17 20 1 37 18 16 18 16 6 0 -7 -9 -10 -22 -6 -28 12 -19 20 -10 21 25
1 41 -9 44 -32 10z"/>
<path d="M4632 2855 c-1 -19 3 -35 7 -35 5 0 9 16 9 35 0 19 -3 35 -7 35 -4 0
-8 -16 -9 -35z"/>
<path d="M2461 2816 c-6 -7 -9 -20 -6 -28 9 -24 -27 -54 -57 -49 -15 2 -8 -18
10 -31 9 -7 17 -19 17 -27 0 -8 7 -17 15 -19 13 -4 13 -3 2 10 -10 13 -10 17
0 21 10 4 10 6 -1 6 -11 1 -11 4 -1 16 15 18 0 20 -20 3 -12 -11 -12 -10 -1 5
23 30 35 14 35 -47 1 -42 -3 -60 -13 -64 -11 -4 -10 -7 5 -14 15 -7 13 -7 -7
-3 -18 3 -26 0 -27 -10 -1 -8 -3 -22 -4 -30 -1 -8 -5 -12 -9 -9 -5 2 -5 12 -2
22 5 14 3 15 -7 5 -11 -10 -11 -16 3 -30 10 -12 13 -23 7 -33 -5 -8 -7 -18 -4
-22 3 -4 -2 -21 -11 -37 -18 -36 -6 -72 31 -92 17 -9 21 -16 14 -24 -6 -7 -8
-19 -4 -28 3 -8 1 -17 -3 -20 -5 -3 -9 10 -9 28 1 19 -3 34 -9 33 -5 -1 -8 -9
-6 -18 7 -31 6 -45 -6 -46 -7 -1 -17 -2 -22 -3 -11 -1 -8 -27 4 -38 4 -4 5 -2
1 5 -7 11 5 17 27 13 5 -1 5 4 1 10 -4 8 -3 9 5 5 16 -10 43 14 36 32 -3 8 1
24 8 36 17 25 23 191 8 200 -5 4 -8 -25 -6 -70 1 -42 0 -72 -4 -68 -11 16 -41
16 -35 0 7 -18 -12 -31 -22 -15 -4 8 -3 9 4 5 14 -8 12 20 -3 44 -8 13 -7 13
8 1 14 -11 20 -11 32 -1 8 7 15 17 15 22 0 6 -7 5 -15 -2 -13 -10 -18 -11 -28
-1 -9 10 -9 11 3 8 8 -2 12 -2 7 0 -4 3 -5 9 -1 14 3 5 0 9 -7 9 -9 0 -9 4 1
15 6 8 9 19 5 25 -3 5 -1 10 4 10 6 0 10 3 10 8 -4 22 3 34 16 28 9 -3 19 3
26 16 6 11 7 18 2 15 -4 -3 -8 28 -8 68 0 46 4 71 10 67 6 -3 4 2 -4 11 -7 9
-9 17 -4 17 5 0 9 14 8 30 0 35 1 34 -14 16z m-10 -449 c-13 -13 -31 0 -24 19
4 11 8 12 20 3 9 -8 10 -16 4 -22z"/>
<path d="M4555 2770 c-4 -6 -3 -16 2 -23 10 -15 10 -38 -1 -55 -5 -8 -4 -18 3
-25 15 -15 14 -30 -1 -21 -7 5 -9 1 -6 -13 3 -11 1 -28 -5 -38 -6 -12 -6 -16
1 -11 6 3 17 -3 25 -15 9 -12 18 -16 21 -10 4 5 0 13 -7 18 -19 11 -29 53 -11
46 7 -2 11 -10 8 -17 -3 -7 2 -19 11 -26 18 -15 21 0 3 18 -9 9 -9 12 3 12 12
0 12 2 0 9 -8 5 -16 27 -18 48 -3 44 -9 86 -13 93 -1 3 -2 8 -1 13 2 10 -7 9
-14 -3z"/>
<path d="M4594 2745 c-15 -23 -15 -27 0 -50 12 -18 13 -25 4 -25 -9 0 -9 -3 1
-9 8 -5 15 -27 16 -48 2 -39 -20 -77 -37 -66 -6 3 -14 -1 -19 -8 -12 -19 -11
-29 2 -29 5 0 7 5 4 10 -3 6 -2 10 3 10 5 0 14 -11 20 -26 10 -20 9 -31 -3
-52 -8 -15 -14 -21 -15 -14 0 6 -6 12 -12 12 -7 -1 -2 -10 11 -21 13 -11 27
-16 31 -12 12 13 23 56 13 50 -14 -9 -9 29 6 47 16 19 1 22 -17 4 -9 -9 -12
-9 -12 0 0 7 5 12 11 12 5 0 7 4 4 10 -3 6 1 7 10 4 11 -5 14 -2 9 10 -4 9 0
18 9 22 23 9 20 72 -4 79 -11 4 -17 11 -13 16 3 6 -2 19 -12 30 -17 19 -17 20
1 37 18 16 18 16 6 0 -7 -9 -10 -22 -6 -28 12 -19 20 -10 21 25 1 41 -9 44
-32 10z"/>
<path d="M4632 2695 c-1 -19 3 -35 7 -35 5 0 9 16 9 35 0 19 -3 35 -7 35 -4 0
-8 -16 -9 -35z"/>
<path d="M2375 2682 c-16 -12 -16 -32 0 -26 12 5 14 -1 11 -29 -4 -25 -1 -37
10 -41 9 -3 12 -1 9 4 -3 5 5 15 19 21 21 10 23 15 15 30 -5 11 -14 19 -20 19
-6 0 -7 -6 -3 -12 4 -7 -2 -5 -14 6 -12 10 -19 23 -16 27 6 11 2 11 -11 1z
m54 -55 c-2 -1 -13 -9 -24 -17 -19 -14 -19 -14 -6 3 7 9 18 17 24 17 6 0 8 -1
6 -3z"/>
<path d="M2435 2560 c-3 -5 -1 -10 4 -10 6 0 11 5 11 10 0 6 -2 10 -4 10 -3 0
-8 -4 -11 -10z"/>
<path d="M2460 2560 c0 -5 5 -10 10 -10 6 0 10 5 10 10 0 6 -4 10 -10 10 -5 0
-10 -4 -10 -10z"/>
<path d="M4630 2560 c0 -5 5 -10 10 -10 6 0 10 5 10 10 0 6 -4 10 -10 10 -5 0
-10 -4 -10 -10z"/>
<path d="M2427 2518 c-3 -12 -2 -29 3 -37 5 -9 10 -11 11 -6 0 6 2 20 3 33 4
30 -10 38 -17 10z"/>
<path d="M4633 2533 c4 -3 -1 -15 -10 -26 -17 -20 -17 -20 1 -13 16 5 17 4 6
-9 -10 -12 -10 -15 0 -15 10 0 10 -3 0 -15 -9 -11 -10 -18 -1 -28 6 -8 8 -17
4 -20 -3 -4 -2 -7 4 -7 5 0 10 30 10 70 0 42 -4 70 -10 70 -6 0 -7 -3 -4 -7z"/>
<path d="M4551 2363 c-10 -19 -9 -22 4 -17 16 6 16 5 19 -38 1 -34 8 -40 24
-22 7 8 8 14 2 14 -5 0 -10 4 -10 8 0 5 7 9 15 9 8 0 11 -5 8 -10 -4 -6 0 -8
10 -4 11 4 15 1 12 -13 -2 -11 0 -22 5 -25 4 -3 8 11 8 30 0 31 -3 35 -23 31
-23 -4 -48 15 -57 44 -4 11 -7 10 -17 -7z"/>
<path d="M2461 2336 c-6 -7 -9 -20 -6 -28 9 -24 -27 -54 -57 -49 -15 2 -8 -18
10 -31 19 -14 26 -48 10 -48 -7 0 -7 -4 -1 -12 5 -7 9 -27 8 -44 -2 -23 2 -31
14 -30 10 1 16 -8 17 -24 2 -35 -6 -52 -23 -46 -10 4 -13 1 -8 -13 5 -15 1
-19 -14 -18 -11 0 -17 5 -15 9 3 5 9 6 13 4 10 -7 8 36 -3 54 -9 13 -8 13 7 1
20 -16 21 -5 3 28 -8 15 -16 20 -20 12 -4 -6 -2 -11 5 -11 8 0 8 -4 1 -13 -7
-8 -7 -18 -2 -27 6 -10 4 -21 -7 -32 -9 -10 -13 -21 -9 -25 13 -14 41 -12 52
3 10 13 12 13 18 -2 8 -21 -21 -55 -43 -52 -9 2 -16 -1 -16 -7 -1 -5 -9 -25
-18 -43 -19 -35 -15 -55 8 -45 8 3 16 0 17 -6 4 -30 2 -36 -9 -37 -7 -1 -17
-2 -22 -3 -11 -1 -8 -27 4 -38 4 -4 5 -2 1 5 -7 11 5 17 27 13 5 -1 5 4 1 10
-4 8 -3 9 5 5 16 -10 43 14 36 32 -3 8 1 24 8 36 10 15 15 56 16 134 0 63 3
118 6 123 4 5 3 9 -2 9 -4 0 -8 31 -8 69 0 43 4 67 10 63 6 -3 4 2 -4 11 -7 9
-9 17 -4 17 5 0 9 14 8 30 0 35 1 34 -14 16z m-7 -134 c1 -51 -6 -66 -18 -37
-3 8 0 15 6 15 7 0 6 5 -2 15 -10 12 -10 15 1 16 11 0 11 2 1 6 -10 4 -10 8
-1 19 14 17 -2 19 -21 2 -12 -11 -12 -10 -1 5 22 29 35 14 35 -41z m4 -80 c2
-7 -1 -12 -8 -12 -6 0 -9 4 -6 9 4 5 1 12 -4 14 -6 3 -5 4 2 3 6 -1 14 -8 16
-14z m-1 -184 c0 -13 -1 -17 -4 -10 -3 6 -10 9 -16 5 -7 -4 -6 1 2 10 17 21
17 21 18 -5z m-46 -32 c-10 -11 -8 -17 9 -29 14 -10 18 -17 10 -22 -6 -4 -8
-15 -5 -25 3 -10 2 -21 -3 -24 -5 -3 -8 10 -6 29 1 24 -1 32 -11 29 -21 -9
-28 16 -10 36 10 11 14 24 10 32 -6 10 -5 10 5 1 10 -10 11 -15 1 -27z m40
-19 c-13 -13 -31 0 -24 19 4 11 8 12 20 3 9 -8 10 -16 4 -22z"/>
<path d="M2390 1880 c0 -5 5 -10 11 -10 5 0 7 5 4 10 -3 6 -8 10 -11 10 -2 0
-4 -4 -4 -10z"/>
<path d="M4555 2290 c-4 -6 -3 -16 2 -23 10 -15 10 -38 -1 -55 -4 -7 -3 -18 2
-25 6 -7 13 -26 16 -42 2 -17 5 -31 5 -33 1 -1 7 3 15 10 8 7 10 15 5 18 -7 5
-13 34 -23 110 -2 14 -5 27 -6 30 -1 3 -2 8 -1 13 2 10 -7 9 -14 -3z"/>
<path d="M4594 2265 c-15 -23 -15 -27 0 -50 12 -18 13 -25 4 -25 -8 0 -9 -3
-3 -8 6 -4 10 -14 10 -22 0 -8 8 -14 17 -14 11 1 15 -5 13 -17 -2 -10 0 -21 5
-24 4 -3 8 11 8 30 0 25 -5 36 -19 40 -11 4 -17 11 -13 16 3 6 -2 19 -12 30
-17 19 -17 20 1 37 18 16 18 16 6 0 -7 -9 -10 -22 -6 -28 12 -19 20 -10 21 25
1 41 -9 44 -32 10z"/>
<path d="M4632 2215 c-1 -19 3 -35 7 -35 5 0 9 16 9 35 0 19 -3 35 -7 35 -4 0
-8 -16 -9 -35z"/>
<path d="M2375 2202 c-17 -12 -16 -32 2 -25 12 5 15 2 10 -10 -7 -18 7 -32 24
-22 7 5 3 15 -10 29 -12 12 -18 26 -14 29 9 9 1 9 -12 -1z"/>
<path d="M4555 2130 c-4 -6 -3 -16 2 -23 10 -15 10 -38 -1 -55 -5 -8 -4 -18 3
-25 15 -15 14 -30 -1 -21 -7 5 -9 1 -6 -13 3 -11 1 -28 -5 -38 -6 -12 -6 -16
1 -11 6 3 17 -3 25 -15 9 -12 18 -16 21 -10 4 5 0 13 -7 18 -19 11 -29 53 -11
46 7 -2 11 -10 8 -17 -3 -7 2 -19 11 -26 18 -15 21 0 3 18 -9 9 -9 12 3 12 12
0 12 2 0 9 -8 5 -16 27 -18 48 -3 44 -9 86 -13 93 -1 3 -2 8 -1 13 2 10 -7 9
-14 -3z"/>
<path d="M4594 2105 c-15 -23 -15 -27 0 -50 12 -18 13 -25 4 -25 -9 0 -9 -3 1
-9 8 -5 15 -27 16 -48 2 -39 -20 -77 -37 -66 -6 3 -14 -1 -19 -8 -12 -19 -11
-29 2 -29 5 0 7 5 4 10 -3 6 -2 10 3 10 5 0 14 -11 20 -26 10 -20 9 -31 -3
-52 -8 -15 -14 -21 -15 -14 0 6 -6 12 -12 12 -7 -1 -2 -10 11 -21 13 -11 27
-16 31 -12 12 13 23 56 13 50 -14 -9 -9 29 6 47 16 19 1 22 -17 4 -9 -9 -12
-9 -12 0 0 7 5 12 11 12 5 0 7 4 4 10 -3 6 1 7 10 4 11 -5 14 -2 9 10 -4 9 0
18 9 22 23 9 20 72 -4 79 -11 4 -17 11 -13 16 3 6 -2 19 -12 30 -17 19 -17 20
1 37 18 16 18 16 6 0 -7 -9 -10 -22 -6 -28 12 -19 20 -10 21 25 1 41 -9 44
-32 10z"/>
<path d="M2430 2080 c0 -5 5 -10 10 -10 6 0 10 5 10 10 0 6 -4 10 -10 10 -5 0
-10 -4 -10 -10z"/>
<path d="M4632 2055 c-1 -19 3 -35 7 -35 5 0 9 16 9 35 0 19 -3 35 -7 35 -4 0
-8 -16 -9 -35z"/>
<path d="M2437 2053 c-4 -3 -7 -11 -7 -17 0 -6 5 -5 12 2 6 6 9 14 7 17 -3 3
-9 2 -12 -2z"/>
<path d="M4630 1920 c0 -5 5 -10 10 -10 6 0 10 5 10 10 0 6 -4 10 -10 10 -5 0
-10 -4 -10 -10z"/>
<path d="M4633 1893 c4 -3 -1 -15 -10 -26 -17 -20 -17 -20 1 -13 16 5 17 4 6
-9 -10 -12 -10 -15 0 -15 10 0 10 -3 0 -15 -9 -11 -10 -18 -1 -28 6 -8 8 -17
4 -20 -3 -4 -2 -7 4 -7 5 0 10 30 10 70 0 42 -4 70 -10 70 -6 0 -7 -3 -4 -7z"/>
<path d="M2461 1856 c-6 -7 -9 -20 -6 -28 9 -24 -27 -54 -57 -49 -15 2 -8 -18
10 -31 9 -7 17 -19 17 -27 0 -8 7 -17 15 -19 13 -4 13 -3 2 10 -10 13 -10 17
0 21 10 4 10 6 -1 6 -11 1 -11 4 -1 16 15 18 0 20 -20 3 -12 -11 -12 -10 -1 5
23 30 35 14 35 -47 1 -42 -3 -60 -13 -64 -11 -4 -10 -7 5 -14 15 -7 13 -7 -7
-3 -18 3 -26 0 -27 -10 -1 -8 -3 -22 -4 -30 -1 -8 -5 -12 -9 -9 -5 2 -5 12 -2
22 5 14 3 15 -7 5 -11 -10 -11 -16 3 -30 10 -12 13 -23 7 -33 -5 -8 -7 -18 -4
-22 3 -4 -2 -21 -11 -37 -18 -36 -6 -72 31 -92 17 -9 21 -16 14 -24 -6 -7 -8
-19 -4 -28 3 -8 1 -17 -3 -20 -5 -3 -9 10 -9 28 1 19 -3 34 -9 33 -5 -1 -8 -9
-6 -18 7 -31 6 -45 -6 -46 -7 -1 -17 -2 -22 -3 -11 -1 -8 -27 4 -38 4 -4 5 -2
1 5 -7 11 5 17 27 13 5 -1 5 4 1 10 -4 8 -3 9 5 5 16 -10 43 14 36 32 -3 8 1
24 8 36 17 25 23 191 8 200 -5 4 -8 -25 -6 -70 1 -42 0 -72 -4 -68 -11 16 -41
16 -35 0 7 -18 -12 -31 -22 -15 -4 8 -3 9 4 5 14 -8 12 20 -3 44 -8 13 -7 13
8 1 14 -11 20 -11 32 -1 8 7 15 17 15 22 0 6 -7 5 -15 -2 -13 -10 -18 -11 -28
-1 -9 10 -9 11 3 8 8 -2 12 -2 7 0 -4 3 -5 9 -1 14 3 5 0 9 -7 9 -9 0 -9 4 1
15 6 8 9 19 5 25 -3 5 -1 10 4 10 6 0 10 3 10 8 -4 22 3 34 16 28 9 -3 19 3
26 16 6 11 7 18 2 15 -4 -3 -8 28 -8 68 0 46 4 71 10 67 6 -3 4 2 -4 11 -7 9
-9 17 -4 17 5 0 9 14 8 30 0 35 1 34 -14 16z m-10 -449 c-13 -13 -31 0 -24 19
4 11 8 12 20 3 9 -8 10 -16 4 -22z"/>
<path d="M3660 1796 c0 -2 8 -10 18 -17 15 -13 16 -12 3 4 -13 16 -21 21 -21
13z"/>
<path d="M3585 1770 c-9 -14 4 -31 18 -24 7 3 4 -1 -6 -9 -10 -8 -14 -18 -9
-21 5 -3 19 5 31 18 20 22 21 24 4 23 -10 -1 -17 4 -15 11 2 14 -14 16 -23 2z"/>
<path d="M4551 1723 c-10 -19 -9 -22 4 -17 16 6 16 5 19 -38 1 -34 8 -40 24
-22 7 8 8 14 2 14 -5 0 -10 4 -10 8 0 5 7 9 15 9 8 0 11 -5 8 -10 -4 -6 0 -8
10 -4 11 4 15 1 12 -13 -2 -11 0 -22 5 -25 4 -3 8 11 8 30 0 31 -3 35 -23 31
-23 -4 -48 15 -57 44 -4 11 -7 10 -17 -7z"/>
<path d="M2375 1722 c-16 -12 -16 -32 0 -26 12 5 14 -1 11 -29 -4 -25 -1 -37
10 -41 9 -3 12 -1 9 4 -3 5 5 15 19 21 21 10 23 15 15 30 -5 11 -14 19 -20 19
-6 0 -7 -6 -3 -12 4 -7 -2 -5 -14 6 -12 10 -19 23 -16 27 6 11 2 11 -11 1z
m54 -55 c-2 -1 -13 -9 -24 -17 -19 -14 -19 -14 -6 3 7 9 18 17 24 17 6 0 8 -1
6 -3z"/>
<path d="M3430 1720 c0 -5 5 -10 10 -10 6 0 10 5 10 10 0 6 -4 10 -10 10 -5 0
-10 -4 -10 -10z"/>
<path d="M3465 1720 c3 -5 10 -10 16 -10 5 0 9 5 9 10 0 6 -7 10 -16 10 -8 0
-12 -4 -9 -10z"/>
<path d="M3556 1723 c-3 -3 1 -11 10 -18 13 -9 5 -10 -38 -8 -97 6 -133 2
-133 -14 0 -20 -14 -26 -29 -14 -11 9 -16 9 -23 -1 -4 -7 -14 -13 -22 -13 -8
0 -17 -7 -19 -15 -5 -13 -3 -13 11 -1 11 9 17 10 17 2 0 -6 -3 -11 -7 -12 -5
0 -26 -2 -48 -4 -51 -4 -49 -3 -35 -20 15 -18 31 -20 28 -2 -2 6 4 10 12 8 17
-4 31 -5 45 -1 21 5 45 0 45 -10 0 -12 -22 -9 -33 5 -5 6 -7 1 -4 -12 3 -15 1
-20 -9 -16 -8 3 -12 8 -10 12 3 4 -5 8 -17 8 -19 2 -20 0 -6 -10 9 -7 14 -19
11 -27 -4 -12 -2 -13 9 -3 8 6 17 12 21 13 37 9 48 14 48 22 0 5 4 7 9 4 11
-7 35 20 27 32 -10 17 -15 62 -5 57 5 -4 6 -11 3 -17 -4 -6 -1 -8 7 -6 8 3 13
11 11 17 -1 8 2 9 10 5 22 -14 50 -15 42 -2 -4 7 -3 8 5 4 6 -4 9 -11 6 -16
-9 -14 24 -20 37 -6 7 7 18 13 23 15 42 9 55 14 55 23 0 5 -4 7 -9 3 -5 -3
-16 1 -24 9 -8 8 -17 12 -21 9z m-26 -42 c0 -6 -4 -12 -8 -15 -5 -3 -9 1 -9 9
0 8 4 15 9 15 4 0 8 -4 8 -9z m-154 -36 c4 -8 10 -12 15 -9 5 3 6 -3 2 -12 -5
-13 -3 -15 7 -9 9 6 11 4 5 -5 -6 -10 -10 -10 -19 2 -6 8 -14 15 -19 16 -21 2
-30 9 -23 20 10 16 25 15 32 -3z"/>
<path d="M3355 1640 c3 -5 8 -10 11 -10 2 0 4 5 4 10 0 6 -5 10 -11 10 -5 0
-7 -4 -4 -10z"/>
<path d="M3431 1657 c-15 -18 -4 -47 15 -40 8 3 11 9 8 14 -3 5 -11 6 -17 2
-7 -4 -6 1 2 10 8 10 12 20 9 22 -3 3 -10 -1 -17 -8z"/>
<path d="M3457 1656 c-7 -17 15 -27 33 -16 10 6 8 11 -8 19 -15 8 -21 7 -25
-3z"/>
<path d="M4555 1650 c-4 -6 -3 -16 2 -23 10 -15 10 -38 -1 -55 -4 -7 -3 -18 2
-25 6 -7 13 -26 16 -42 2 -17 5 -31 5 -33 1 -1 7 3 15 10 8 7 10 15 5 18 -7 5
-13 34 -23 110 -2 14 -5 27 -6 30 -1 3 -2 8 -1 13 2 10 -7 9 -14 -3z"/>
<path d="M4594 1625 c-15 -23 -15 -27 0 -50 12 -18 13 -25 4 -25 -8 0 -9 -3
-3 -8 6 -4 10 -14 10 -22 0 -8 8 -14 17 -14 11 1 15 -5 13 -17 -2 -10 0 -21 5
-24 4 -3 8 11 8 30 0 25 -5 36 -19 40 -11 4 -17 11 -13 16 3 6 -2 19 -12 30
-17 19 -17 20 1 37 18 16 18 16 6 0 -7 -9 -10 -22 -6 -28 12 -19 20 -10 21 25
1 41 -9 44 -32 10z"/>
<path d="M2435 1600 c-3 -5 -1 -10 4 -10 6 0 11 5 11 10 0 6 -2 10 -4 10 -3 0
-8 -4 -11 -10z"/>
<path d="M2460 1600 c0 -5 5 -10 10 -10 6 0 10 5 10 10 0 6 -4 10 -10 10 -5 0
-10 -4 -10 -10z"/>
<path d="M4632 1575 c-1 -19 3 -35 7 -35 5 0 9 16 9 35 0 19 -3 35 -7 35 -4 0
-8 -16 -9 -35z"/>
<path d="M3207 1574 c-15 -14 -27 -28 -27 -32 0 -14 39 -8 45 6 4 10 0 12 -12
8 -15 -5 -15 -4 1 9 11 8 23 15 27 15 15 0 20 -20 10 -37 -8 -14 -11 -15 -11
-3 0 12 -3 11 -11 -3 -6 -10 -8 -21 -5 -24 3 -4 6 -1 6 5 0 6 7 9 15 6 8 -4
15 -1 15 5 0 6 7 11 16 11 10 0 14 7 12 23 -2 12 -9 21 -17 19 -7 -1 -18 2
-25 7 -8 7 -20 3 -39 -15z"/>
<path d="M2427 1558 c-3 -12 -2 -29 3 -37 5 -9 10 -11 11 -6 0 6 2 20 3 33 4
30 -10 38 -17 10z"/>
<path d="M3094 1540 c-25 -33 -89 -74 -119 -75 -20 -1 -55 -26 -50 -36 9 -13
25 -11 23 3 -2 8 8 12 24 12 15 -1 25 3 22 7 -3 5 0 9 5 9 11 0 14 -11 9 -27
-2 -5 -13 -8 -25 -8 -24 0 -45 -15 -22 -16 8 0 22 -2 32 -4 9 -2 17 1 17 7 0
6 6 8 14 5 8 -3 23 3 34 14 12 10 26 19 31 19 21 0 61 24 58 34 -3 6 -1 18 4
27 6 12 3 21 -8 30 -14 12 -15 11 -9 -8 5 -15 2 -25 -11 -32 -10 -6 -12 -11
-5 -11 6 0 12 -5 12 -12 0 -9 -3 -9 -12 0 -17 17 -33 15 -19 -2 9 -11 7 -13
-11 -12 -13 1 -28 -7 -34 -18 -11 -19 -12 -19 -23 2 -11 20 2 43 16 28 4 -3
12 3 20 14 8 11 20 17 28 13 11 -3 13 -1 10 10 -4 8 1 22 11 31 15 15 18 15
33 2 20 -18 26 -60 8 -50 -8 5 -7 2 1 -7 11 -12 14 -12 22 1 5 8 5 21 -1 31
-5 10 -6 25 -2 35 4 12 2 15 -8 12 -8 -3 -21 -2 -30 3 -12 6 -23 -2 -45 -31z"/>
<path d="M3235 1560 c3 -5 8 -10 11 -10 2 0 4 5 4 10 0 6 -5 10 -11 10 -5 0
-7 -4 -4 -10z"/>
<path d="M3110 1520 c0 -5 5 -10 10 -10 6 0 10 5 10 10 0 6 -4 10 -10 10 -5 0
-10 -4 -10 -10z"/>
<path d="M3190 1521 c0 -6 5 -13 10 -16 6 -3 10 1 10 9 0 9 -4 16 -10 16 -5 0
-10 -4 -10 -9z"/>
<path d="M3077 1493 c-10 -9 -9 -23 1 -23 5 0 9 7 9 15 0 17 -1 18 -10 8z"/>
<path d="M4555 1489 c-4 -5 1 -19 10 -29 12 -14 15 -24 8 -32 -5 -7 -8 -28 -6
-45 2 -20 -2 -33 -9 -33 -14 0 -2 -13 15 -16 7 -1 18 -3 26 -5 7 -2 16 2 18 9
3 7 1 12 -4 11 -23 -4 -28 5 -27 49 0 26 -4 56 -10 67 -5 11 -9 23 -8 28 3 11
-6 9 -13 -4z"/>
<path d="M4603 1478 c-11 -19 -12 -67 -1 -74 6 -4 5 -10 -3 -15 -10 -6 -10 -9
-2 -9 7 0 10 -7 7 -17 -4 -14 -3 -15 4 -5 7 11 10 11 15 -2 8 -20 27 -21 27
-2 0 8 -9 18 -20 21 -11 4 -18 11 -14 16 3 6 0 17 -7 25 -9 12 -9 13 2 9 11
-4 14 4 15 30 0 36 -9 45 -23 23z"/>
<path d="M3035 1460 c3 -5 8 -10 11 -10 2 0 4 5 4 10 0 6 -5 10 -11 10 -5 0
-7 -4 -4 -10z"/>
<path d="M2862 1434 c-7 -8 -17 -12 -22 -9 -4 3 -7 -13 -6 -36 2 -34 -1 -43
-19 -51 -23 -10 -31 -40 -8 -31 7 3 13 9 13 15 0 5 5 6 12 2 7 -5 8 -3 3 6 -6
9 -4 12 6 8 20 -8 66 17 50 27 -7 4 -19 -1 -27 -11 -14 -18 -14 -17 -3 5 9 20
9 23 -3 18 -8 -3 -15 1 -15 8 0 7 6 11 12 9 7 -3 18 3 26 12 12 15 11 16 -11
10 -25 -6 -25 -6 -2 5 12 7 22 16 22 21 0 12 -13 9 -28 -8z"/>
<path d="M4632 1415 c-1 -19 3 -35 7 -35 5 0 9 16 9 35 0 19 -3 35 -7 35 -4 0
-8 -16 -9 -35z"/>
<path d="M2897 1432 c-3 -4 3 -13 14 -20 10 -7 19 -8 19 -3 0 13 -28 33 -33
23z"/>
<path d="M2881 1397 c-8 -11 -5 -16 15 -26 27 -12 48 -6 38 11 -4 6 1 8 15 3
11 -3 21 -2 21 3 0 15 -26 22 -38 10 -6 -6 -12 -6 -16 1 -9 15 -21 14 -35 -2z
m43 -26 c-2 -3 -12 3 -22 13 -16 17 -16 18 5 5 12 -7 20 -15 17 -18z"/>
<path d="M2461 1376 c-6 -7 -9 -20 -6 -28 9 -24 -27 -54 -57 -49 -15 2 -8 -18
10 -31 19 -14 26 -48 10 -48 -7 0 -7 -4 -1 -12 5 -7 9 -27 8 -44 -2 -23 2 -31
14 -30 10 1 16 -8 17 -24 2 -35 -6 -52 -23 -46 -10 4 -13 1 -8 -13 5 -15 1
-19 -14 -18 -11 0 -17 5 -15 9 3 5 9 6 13 4 10 -7 8 36 -3 54 -9 13 -8 13 7 1
20 -16 21 -5 3 28 -8 15 -16 20 -20 12 -4 -6 -2 -11 5 -11 8 0 8 -4 1 -13 -7
-8 -7 -18 -2 -27 6 -10 4 -21 -7 -32 -9 -10 -13 -21 -9 -25 13 -14 41 -12 52
3 10 13 12 13 18 -2 8 -21 -21 -55 -43 -52 -9 2 -16 -1 -16 -7 -1 -5 -9 -26
-19 -45 l-19 -34 31 -26 c25 -21 29 -28 20 -44 -8 -15 -8 -17 3 -12 8 4 5 0
-5 -8 -16 -13 -16 -16 -5 -16 9 0 19 3 23 7 14 14 34 11 31 -6 -2 -9 -4 -23
-4 -31 -1 -13 -2 -13 -11 0 -6 9 -5 17 2 21 7 4 7 9 0 13 -17 10 -23 -10 -12
-38 6 -17 14 -24 25 -20 8 3 12 10 9 15 -3 6 -1 15 5 22 6 8 6 18 1 27 -12 19
-13 33 -2 26 10 -6 9 30 -1 40 -3 4 -1 16 5 28 l11 21 -24 -20 -23 -20 16 25
c11 19 16 54 17 138 0 63 3 118 6 123 4 5 3 9 -2 9 -4 0 -8 31 -8 69 0 43 4
67 10 63 6 -3 4 2 -4 11 -7 9 -9 17 -4 17 5 0 9 14 8 30 0 35 1 34 -14 16z
m-7 -134 c1 -51 -6 -66 -18 -37 -3 8 0 15 6 15 7 0 6 5 -2 15 -10 12 -10 15 1
16 11 0 11 2 1 6 -10 4 -10 8 -1 19 14 17 -2 19 -21 2 -12 -11 -12 -10 -1 5
22 29 35 14 35 -41z m4 -80 c2 -7 -1 -12 -8 -12 -6 0 -9 4 -6 9 4 5 1 12 -4
14 -6 3 -5 4 2 3 6 -1 14 -8 16 -14z m-1 -184 c0 -13 -1 -17 -4 -10 -3 6 -10
9 -16 5 -7 -4 -6 1 2 10 17 21 17 21 18 -5z m-46 -32 c-10 -11 -8 -17 9 -29
13 -9 17 -18 11 -21 -5 -4 -8 -13 -5 -21 4 -8 9 -13 13 -11 4 3 13 1 21 -5 10
-6 11 -9 3 -9 -7 0 -12 -5 -10 -11 1 -6 -4 -14 -12 -17 -10 -3 -12 0 -8 11 4
11 -5 23 -29 37 -36 23 -48 38 -15 21 18 -10 31 -6 31 10 0 5 -6 6 -14 3 -22
-9 -30 15 -11 36 10 11 14 24 10 32 -6 10 -5 10 5 1 10 -10 11 -15 1 -27z m40
-19 c-13 -13 -31 0 -24 19 4 11 8 12 20 3 9 -8 10 -16 4 -22z"/>
<path d="M2390 920 c0 -5 5 -10 11 -10 5 0 7 5 4 10 -3 6 -8 10 -11 10 -2 0
-4 -4 -4 -10z"/>
<path d="M4615 1320 c-4 -6 -12 -7 -18 -3 -7 4 -6 -1 2 -11 13 -15 15 -16 23
-2 5 9 14 16 21 16 7 0 6 -4 -3 -10 -8 -5 -11 -12 -7 -16 10 -11 31 12 23 25
-9 14 -33 14 -41 1z"/>
<path d="M2375 1242 c-17 -12 -16 -32 2 -25 12 5 15 2 10 -10 -7 -18 7 -32 24
-22 7 5 3 15 -10 29 -12 12 -18 26 -14 29 9 9 1 9 -12 -1z"/>
<path d="M4610 1215 c-21 -22 -22 -25 -5 -25 10 0 16 3 12 6 -3 4 4 15 16 25
12 10 17 18 11 19 -6 0 -21 -11 -34 -25z"/>
<path d="M4659 1203 c-1 -5 -2 -15 -3 -23 0 -8 -7 -14 -14 -12 -19 4 -5 -16
21 -30 20 -10 21 -10 9 5 -16 19 -6 41 14 33 17 -7 18 6 2 22 -14 14 -27 16
-29 5z"/>
<path d="M4712 1185 c-7 -16 -17 -23 -27 -19 -8 3 -15 2 -15 -4 0 -5 7 -12 15
-16 8 -3 15 -1 15 5 0 6 4 8 9 4 11 -6 42 35 35 47 -9 14 -21 9 -32 -17z"/>
<path d="M4515 1160 c-4 -6 -3 -16 2 -22 12 -21 12 -38 0 -38 -8 0 -7 -3 1 -9
22 -13 -16 -23 -40 -10 -16 9 -19 8 -15 -3 2 -7 11 -12 18 -10 9 1 7 -3 -4
-12 -27 -21 -6 -26 28 -6 17 9 29 24 29 33 -1 9 7 19 17 22 11 4 19 11 19 16
0 12 -13 12 -28 -1 -9 -7 -9 -7 -2 2 6 8 4 16 -8 25 -15 12 -14 13 6 3 13 -7
26 -10 28 -7 2 2 -7 9 -21 15 -15 7 -27 8 -30 2z"/>
<path d="M2430 1120 c0 -5 5 -10 10 -10 6 0 10 5 10 10 0 6 -4 10 -10 10 -5 0
-10 -4 -10 -10z"/>
<path d="M4392 1096 c-4 -6 -7 -29 -7 -51 0 -33 -3 -39 -17 -37 -22 4 -24 -14
-3 -22 8 -3 15 -1 15 4 0 6 3 9 8 8 4 0 21 5 37 13 26 12 31 19 29 47 -1 18
-5 36 -8 39 -11 11 -46 10 -54 -1z m42 -19 c4 4 4 -1 0 -11 -5 -13 -4 -17 4
-12 8 5 10 2 5 -10 -5 -14 -7 -14 -18 5 -6 12 -14 19 -17 16 -3 -4 -9 -1 -14
6 -5 8 -3 10 6 4 10 -6 12 -3 7 11 -7 18 -6 18 6 2 8 -10 17 -15 21 -11z m-21
-41 c3 -8 -2 -20 -11 -28 -15 -12 -16 -11 -3 5 9 11 10 17 2 17 -6 0 -11 5
-11 10 0 15 17 12 23 -4z"/>
<path d="M2437 1093 c-4 -3 -7 -11 -7 -17 0 -6 5 -5 12 2 6 6 9 14 7 17 -3 3
-9 2 -12 -2z"/>
<path d="M4550 1084 c0 -8 5 -12 10 -9 6 3 10 10 10 16 0 5 -4 9 -10 9 -5 0
-10 -7 -10 -16z"/>
<path d="M4269 1002 c-13 -33 -11 -40 5 -19 11 15 15 15 19 3 11 -27 -16 -36
-43 -14 -14 11 -19 16 -11 12 10 -5 12 -3 6 6 -6 9 -4 11 5 5 8 -5 11 -3 8 5
-5 15 -30 27 -27 13 2 -7 -19 -60 -29 -73 -2 -3 -18 -5 -35 -6 -59 -2 -63 -4
-64 -23 -1 -13 3 -18 13 -14 7 3 11 9 8 14 -3 5 3 6 12 2 13 -5 15 -3 9 7 -6
10 -4 11 6 4 8 -5 17 -9 21 -9 3 0 10 -4 15 -9 4 -5 3 -6 -4 -3 -6 4 -14 1
-16 -5 -4 -10 -6 -10 -6 -1 -1 7 -8 10 -16 7 -8 -4 -12 -10 -9 -15 3 -5 -3 -6
-13 -3 -15 5 -15 4 -3 -5 12 -8 12 -10 -5 -10 -44 -1 -56 -5 -51 -17 5 -14
-19 -9 -41 8 -8 7 -11 3 -10 -11 1 -16 6 -20 22 -16 18 5 18 5 2 -5 -18 -12
-41 -5 -32 10 3 5 1 11 -5 15 -5 3 -10 -2 -10 -12 -1 -29 -45 -56 -70 -43 -22
12 -26 25 -10 35 5 3 6 12 3 21 -5 13 -10 11 -30 -7 -13 -13 -21 -30 -18 -39
3 -9 0 -8 -10 4 -8 11 -18 16 -22 13 -11 -12 30 -37 54 -34 14 3 20 0 16 -9
-2 -7 -10 -11 -17 -8 -7 3 -18 -2 -25 -9 -18 -22 14 -30 35 -9 10 9 20 16 23
15 11 -5 41 9 41 18 0 6 4 8 9 5 9 -6 148 60 174 82 6 6 16 10 20 10 4 0 21 5
37 12 24 10 29 17 26 41 -3 25 -1 27 15 18 11 -5 19 -14 19 -19 0 -10 40 8 51
23 3 4 15 9 26 10 19 1 19 3 4 28 -19 34 -59 34 -72 1z m57 -7 c1 -8 -1 -15
-6 -15 -10 0 -20 26 -13 34 8 8 16 -1 19 -19z m-116 -75 c0 -5 -2 -10 -4 -10
-3 0 -8 5 -11 10 -3 6 -1 10 4 10 6 0 11 -4 11 -10z m-315 -89 c-3 -6 -11 -11
-16 -11 -5 0 -4 6 3 14 14 16 24 13 13 -3z"/>
<path d="M4185 971 c-3 -5 -1 -12 4 -15 5 -3 11 1 15 9 6 16 -9 21 -19 6z"/>
<path d="M4105 962 c-4 -4 -10 -7 -14 -7 -3 0 -20 -12 -36 -28 -17 -15 -38
-30 -47 -33 -19 -6 -25 -24 -8 -24 6 0 10 5 10 12 0 6 6 3 14 -7 11 -15 17
-17 28 -7 8 6 18 9 21 5 4 -3 7 -1 7 6 0 7 4 10 8 7 5 -3 8 5 7 17 -3 31 5 47
20 41 7 -3 16 -1 19 4 7 12 -19 24 -29 14z m-49 -80 c-11 -9 -16 -11 -12 -4 4
6 2 12 -5 12 -8 0 -8 4 1 15 9 11 16 13 24 5 7 -7 5 -15 -8 -28z"/>
<path d="M4235 941 c-3 -5 -1 -12 5 -16 5 -3 10 1 10 9 0 18 -6 21 -15 7z"/>
<path d="M3814 777 c3 -10 6 -21 6 -23 0 -3 9 0 20 6 11 6 20 16 20 22 0 7 -4
7 -13 -1 -10 -8 -17 -7 -27 2 -10 10 -12 9 -6 -6z"/>
<path d="M3764 772 c-24 -16 -35 -51 -23 -74 11 -20 13 -20 24 -5 6 9 14 14
17 11 3 -3 22 4 43 14 22 12 32 23 25 27 -6 4 -18 -1 -26 -11 -11 -15 -13 -15
-8 -3 3 9 -2 24 -11 33 -18 18 -25 19 -41 8z m41 -31 c-6 -5 -25 10 -25 20 0
5 6 4 14 -3 8 -7 12 -15 11 -17z m-32 -18 c-6 -15 -23 -18 -23 -3 0 6 6 10 13
11 9 0 9 2 -1 6 -6 2 -9 9 -6 15 9 14 24 -11 17 -29z"/>
<path d="M3703 765 c10 -12 -22 -45 -38 -39 -7 3 -16 0 -21 -7 -5 -8 -3 -10 6
-4 9 5 11 4 6 -3 -11 -18 10 -14 29 4 9 9 19 13 23 10 3 -4 2 -10 -4 -14 -16
-11 9 -53 25 -43 10 7 10 13 2 29 -6 11 -8 27 -6 35 3 7 -2 20 -12 28 -10 7
-15 9 -10 4z"/>
<path d="M2450 720 c0 -5 5 -10 10 -10 6 0 10 5 10 10 0 6 -4 10 -10 10 -5 0
-10 -4 -10 -10z"/>
<path d="M3615 721 c-3 -6 0 -11 7 -12 7 0 3 -5 -9 -11 -27 -13 -37 -38 -22
-52 7 -6 9 -6 6 -1 -3 6 1 19 9 30 10 13 14 15 14 4 0 -12 2 -12 11 1 8 12 9
11 5 -6 -6 -18 -2 -21 27 -21 28 0 34 4 33 21 -1 23 -27 29 -34 8 -2 -8 3 -10
15 -6 14 5 15 4 3 -4 -16 -12 -30 -7 -30 11 -1 20 -27 49 -35 38z"/>
<path d="M3542 693 c-6 -3 -10 -8 -7 -13 3 -5 -2 -16 -11 -24 -8 -9 -12 -16
-8 -16 5 0 3 -5 -4 -12 -9 -9 -16 -7 -33 8 -21 19 -21 19 -40 -5 -23 -28 -23
-35 -4 -51 17 -14 21 0 5 16 -8 8 -6 15 4 23 20 16 60 -4 52 -26 -12 -30 6
-32 54 -8 28 14 53 25 57 24 3 0 10 6 15 14 10 18 0 49 -13 41 -5 -3 -7 -10
-4 -15 13 -20 -8 -30 -22 -10 -8 12 -12 25 -9 30 8 12 -16 29 -32 24z m14 -32
c-15 -17 -12 -31 6 -31 5 0 6 5 2 12 -5 7 -3 8 6 3 10 -6 9 -11 -4 -21 -12 -8
-13 -13 -5 -16 9 -3 7 -7 -5 -11 -11 -4 -15 -3 -10 4 4 7 1 10 -7 7 -8 -3 -13
-11 -11 -17 1 -7 -2 -10 -7 -7 -17 11 -5 41 15 38 15 -3 16 -1 6 11 -10 11 -9
17 3 27 8 7 12 17 8 23 -4 6 -1 7 6 3 9 -6 9 -12 -3 -25z"/>
<path d="M3637 636 c-4 -10 -1 -13 8 -9 8 3 12 9 9 14 -7 12 -11 11 -17 -5z"/>
<path d="M3387 599 c3 -10 9 -17 13 -14 4 3 10 -2 13 -10 4 -9 1 -12 -9 -8 -9
3 -14 0 -12 -8 4 -18 -62 -21 -69 -3 -3 8 -10 11 -16 7 -6 -4 -4 -11 7 -18 27
-20 -9 -28 -45 -10 -28 15 -30 15 -39 -10 -13 -33 -13 -32 5 -32 9 0 14 6 11
14 -3 8 -2 12 3 8 5 -3 12 1 14 7 4 10 6 10 6 0 1 -7 6 -10 13 -6 6 4 8 3 4
-4 -3 -6 -2 -13 4 -17 5 -3 10 -2 10 4 0 6 9 15 20 21 14 7 20 7 20 0 0 -5 -7
-10 -15 -10 -8 0 -15 -5 -15 -11 0 -5 4 -7 10 -4 6 4 7 -1 4 -12 -5 -16 -4
-16 8 -2 7 9 19 14 26 12 6 -3 12 3 12 12 0 8 16 25 35 36 34 20 34 21 17 44
-23 32 -41 39 -35 14z"/>
<path d="M3447 613 c-4 -3 -1 -13 5 -21 10 -12 7 -18 -13 -36 -15 -11 -35 -26
-45 -33 -17 -11 -17 -12 -1 -12 9 -1 17 4 17 9 0 6 9 10 20 10 11 0 20 5 20
11 0 5 4 8 8 5 12 -7 38 12 29 21 -5 4 -12 1 -17 -7 -6 -8 -10 -11 -10 -6 0 5
8 18 17 28 15 17 15 20 3 28 -18 12 -25 12 -33 3z m23 -13 c0 -5 -2 -10 -4
-10 -3 0 -8 5 -11 10 -3 6 -1 10 4 10 6 0 11 -4 11 -10z"/>
<path d="M3200 515 c-8 -9 -8 -15 -2 -15 12 0 26 19 19 26 -2 2 -10 -2 -17
-11z"/>
<path d="M3256 494 c-9 -25 -7 -28 11 -13 15 13 15 12 2 -8 -7 -12 -16 -18
-19 -12 -4 5 -14 1 -24 -10 -10 -11 -13 -22 -8 -25 6 -3 12 1 16 9 3 8 12 12
21 9 8 -3 15 -1 15 5 0 6 3 10 8 10 21 -4 32 3 32 18 0 15 -2 14 -15 -3 -10
-13 -13 -14 -10 -3 8 22 -20 45 -29 23z"/>
<path d="M3140 482 c0 -7 -4 -11 -9 -8 -5 3 -8 -2 -7 -11 1 -13 -7 -18 -26
-18 -29 -1 -51 -14 -27 -16 8 -1 24 -3 36 -4 12 -1 20 2 17 6 -3 5 1 6 9 3 8
-3 20 2 27 11 11 13 11 19 -3 33 -12 11 -17 12 -17 4z m20 -16 c0 -2 -8 -10
-17 -17 -16 -13 -17 -12 -4 4 13 16 21 21 21 13z"/>
<path d="M3180 460 c-11 -27 -42 -47 -64 -42 -5 2 -6 -4 -3 -12 4 -9 1 -18 -5
-22 -6 -4 -8 -3 -5 3 4 6 0 16 -9 23 -12 10 -17 11 -27 1 -9 -10 -9 -12 2 -9
7 2 16 -3 18 -9 3 -7 0 -13 -6 -13 -10 0 -25 18 -27 35 0 6 -2 16 -2 23 -1 6
-6 12 -11 12 -5 0 -7 -13 -5 -29 6 -35 -8 -47 -29 -26 -13 13 -16 13 -21 -1
-8 -20 -8 -24 2 -23 22 4 34 -3 29 -15 -3 -8 -1 -17 6 -19 17 -6 57 14 51 25
-3 5 0 9 7 7 33 -4 48 2 54 22 6 17 9 19 17 8 8 -11 9 -10 4 4 -3 9 -1 17 4
17 6 0 10 -4 10 -10 0 -5 5 -10 10 -10 6 0 8 11 6 25 -3 15 -1 23 5 19 11 -6
49 23 49 38 0 5 -7 2 -16 -6 -8 -9 -20 -16 -27 -16 -6 0 -2 7 9 15 16 12 16
14 3 15 -9 0 -22 -13 -29 -30z m-110 -85 c0 -1 -8 -9 -18 -18 -15 -14 -19 -15
-19 -2 0 8 5 11 10 8 6 -4 8 0 4 10 -4 11 -2 14 9 10 7 -3 14 -6 14 -8z"/>
<path d="M3195 420 c3 -5 8 -10 11 -10 2 0 4 5 4 10 0 6 -5 10 -11 10 -5 0 -7
-4 -4 -10z"/>
<path d="M2924 372 c-6 -4 -17 -18 -23 -31 -10 -17 -16 -20 -24 -12 -15 15
-27 14 -21 -3 5 -14 -27 -39 -43 -34 -4 2 -9 -1 -10 -7 -2 -5 3 -10 10 -10 7
0 11 -11 10 -23 -2 -16 1 -21 10 -15 6 4 14 8 17 9 17 3 60 29 60 36 0 5 4 7
9 4 12 -8 103 38 94 47 -10 11 -25 8 -18 -2 3 -6 -4 -8 -15 -6 -13 3 -18 0
-14 -7 5 -7 2 -8 -6 -3 -9 5 -11 4 -6 -3 5 -8 1 -10 -10 -5 -10 4 -15 2 -11
-3 3 -5 -3 -10 -14 -10 -10 0 -19 4 -19 8 0 4 -7 5 -15 2 -8 -4 -12 -10 -9
-15 3 -5 10 -6 16 -3 7 4 8 2 4 -5 -4 -6 -12 -9 -17 -6 -5 4 -12 -1 -15 -9 -3
-9 -11 -13 -16 -10 -6 4 -5 10 3 15 8 4 15 13 15 19 1 5 2 14 3 19 0 5 15 7
32 4 21 -3 29 -1 25 6 -5 7 -1 8 9 5 9 -4 15 -3 14 2 -5 29 2 37 17 18 12 -14
14 -15 11 -3 -4 13 -1 16 16 11 12 -3 18 -1 14 3 -4 5 -14 10 -21 11 -7 1 -22
4 -32 8 -11 3 -24 2 -30 -2z m11 -21 c-3 -6 -11 -11 -16 -11 -5 0 -4 6 3 14
14 16 24 13 13 -3z"/>
<path d="M2830 326 c0 -9 5 -16 10 -16 6 0 10 4 10 9 0 6 -4 13 -10 16 -5 3
-10 -1 -10 -9z"/>
<path d="M2771 296 c-10 -12 -8 -17 11 -27 18 -9 21 -9 11 1 -6 7 -9 19 -6 26
7 18 -1 18 -16 0z"/>
<path d="M2739 285 c-1 -5 -2 -14 -4 -20 -1 -5 -3 -14 -3 -19 -1 -5 -9 -3 -17
4 -8 6 -20 8 -27 4 -7 -5 -19 -9 -25 -9 -17 0 -18 -18 -2 -24 7 -2 9 1 4 9 -5
8 -4 11 3 6 6 -3 14 -2 17 4 4 7 11 7 18 2 14 -11 48 -12 41 -1 -12 20 20 18
42 -2 13 -12 24 -18 24 -12 0 6 3 20 6 30 4 13 3 15 -4 4 -8 -11 -14 -11 -33
-1 -13 7 -27 18 -31 24 -5 7 -8 7 -9 1z"/>
<path d="M2761 233 c8 -9 9 -14 3 -10 -7 4 -14 0 -18 -8 -3 -8 0 -17 6 -21 7
-4 8 -3 4 4 -5 8 0 12 13 12 24 0 27 10 9 28 -18 18 -32 14 -17 -5z"/>
<path d="M2615 229 c-4 -6 -14 -8 -23 -4 -8 3 -4 -6 11 -21 16 -16 40 -27 61
-29 40 -4 76 4 76 15 0 10 -20 8 -40 -5 -13 -8 -13 -7 -1 8 17 22 3 22 -21 1
-13 -13 -21 -14 -31 -5 -8 6 -17 8 -20 5 -3 -4 -4 5 -1 20 5 27 0 34 -11 15z"/>
<path d="M2677 220 c-9 -13 -17 -17 -22 -11 -3 6 -11 11 -18 11 -6 0 -4 -7 6
-17 15 -16 18 -16 37 2 15 13 23 15 33 6 14 -11 27 -6 27 11 0 5 -5 6 -10 3
-6 -4 -17 -2 -25 5 -10 8 -17 6 -28 -10z"/>
</g>
</svg>
